<svg xmlns="http://www.w3.org/2000/svg" viewBox="0 0 256 256"><defs><style>.cls-1{fill:#6dd0fc;}.cls-2{fill:#a4ecff;}.cls-3{fill:#2fb1ea;}.cls-4{fill:#cbecf9;}.cls-5{fill:#fff;}.cls-6{fill:#ffc444;}.cls-7{fill:#ffe76e;}.cls-8{fill:#52e355;}.cls-9{fill:#90fc95;}.cls-10{fill:#f97171;}.cls-11{fill:#f88;}.cls-12{fill:#d4ffd4;}.cls-13{fill:#ffbdbd;}.cls-14{fill:#bbf1ff;}.cls-15{fill:#fff4c5;}</style></defs><title>business economic finance interprise company announcement</title><g id="Layer_2" data-name="Layer 2"><rect class="cls-1" x="3.36" y="162.85" width="64" height="40" transform="translate(218.21 147.48) rotate(90)"/><rect class="cls-2" x="4.53" y="161.68" width="55.94" height="34.28" transform="translate(211.32 146.32) rotate(90)"/><path class="cls-3" d="M55.36,216.85h-40a2,2,0,0,1-2-2v-64a2,2,0,0,1,2-2h40a2,2,0,0,1,2,2v64A2,2,0,0,1,55.36,216.85Zm-38-4h36v-60h-36Z"/><rect class="cls-4" x="38.16" y="172.05" width="56" height="21.59" transform="translate(249.01 116.69) rotate(90)"/><rect class="cls-5" x="40.7" y="173.62" width="49.53" height="12" transform="translate(245.08 114.15) rotate(90)"/><path class="cls-3" d="M77,212.85H55.36a2,2,0,0,1-2-2v-56a2,2,0,0,1,2-2H77a2,2,0,0,1,2,2v56A2,2,0,0,1,77,212.85Zm-19.59-4H75v-52H57.36Z"/><path class="cls-6" d="M156,164.85v43.93a12,12,0,0,1-12,12H129.19a37.55,37.55,0,0,1-21-6.45l-1.53-1a37.55,37.55,0,0,0-21-6.45H77v-48h12A6,6,0,0,0,93,157.24l20-18.66v20.27h37A6,6,0,0,1,156,164.85Z"/><path class="cls-7" d="M144,160.85H108.71V142.62L93,157.24a6,6,0,0,1-4.09,1.61h-6.1v39.22h2.74a37.55,37.55,0,0,1,21,6.45l1.53,1a37.55,37.55,0,0,0,21,6.45H138a12,12,0,0,0,12-12V166.85A6,6,0,0,0,144,160.85Z"/><path class="cls-3" d="M144,222.78H129.19A39.41,39.41,0,0,1,107,216l-1.52-1a35.42,35.42,0,0,0-19.92-6.11H77a2,2,0,0,1-2-2v-48a2,2,0,0,1,2-2h12a4,4,0,0,0,2.73-1.07l20-18.66a2,2,0,0,1,3.36,1.46v18.27h35a8,8,0,0,1,8,8v43.93A14,14,0,0,1,144,222.78ZM79,204.85h6.62a39.41,39.41,0,0,1,22.16,6.79l1.52,1a35.42,35.42,0,0,0,19.92,6.11H144a10,10,0,0,0,10-10V164.85a4,4,0,0,0-4-4H113a2,2,0,0,1-2-2V143.17L94.39,158.7a8,8,0,0,1-5.45,2.15H79Z"/><rect class="cls-8" x="113.05" y="122.86" width="37" height="35.99"/><rect class="cls-9" x="113.05" y="130.09" width="29.28" height="28.76"/><path class="cls-3" d="M150,160.85H113a2,2,0,0,1-2-2v-36a2,2,0,0,1,2-2h37a2,2,0,0,1,2,2v36A2,2,0,0,1,150,160.85Zm-35-4h33v-32H115Z"/><path class="cls-10" d="M232.66,148l-72-25.19V60.76l72-25.19a6,6,0,0,1,8,5.66V142.39A6,6,0,0,1,232.66,148Z"/><path class="cls-11" d="M224.51,137.07l-63.87-22.39V60.76l63.87-23.28c3.9-1.36,8-3.18,8,1v93A6,6,0,0,1,224.51,137.07Z"/><path class="cls-3" d="M234.66,150.4a8.06,8.06,0,0,1-2.67-.46h0l-72-25.19a2,2,0,0,1-1.34-1.89V60.76A2,2,0,0,1,160,58.87l72-25.19a8,8,0,0,1,10.64,7.55V142.39a8,8,0,0,1-8,8Zm-1.35-4.23a4,4,0,0,0,5.32-3.78V41.23a4,4,0,0,0-5.32-3.78L162.64,62.18v59.27Z"/><rect class="cls-4" x="106.71" y="60.76" width="53.93" height="62.1"/><rect class="cls-5" x="106.71" y="60.76" width="53.93" height="53.93"/><path class="cls-3" d="M160.64,124.86H106.71a2,2,0,0,1-2-2V60.76a2,2,0,0,1,2-2h53.93a2,2,0,0,1,2,2v62.1A2,2,0,0,1,160.64,124.86Zm-51.93-4h49.93V62.76H108.71Z"/><path class="cls-10" d="M102.51,60.76h4.2a0,0,0,0,1,0,0v62.1a0,0,0,0,1,0,0h-4.2A31.05,31.05,0,0,1,71.46,91.81v0a31.05,31.05,0,0,1,31.05-31.05Z"/><path class="cls-11" d="M98.42,60.76h8.28a0,0,0,0,1,0,0v53.93a0,0,0,0,1,0,0H98.42a27,27,0,0,1-27-27v0A27,27,0,0,1,98.42,60.76Z"/><path class="cls-3" d="M106.71,124.86h-4.2a33.05,33.05,0,1,1,0-66.1h4.2a2,2,0,0,1,2,2v62.1A2,2,0,0,1,106.71,124.86Zm-4.2-62.1a29.05,29.05,0,1,0,0,58.1h2.2V62.76Z"/><circle class="cls-3" cx="35.36" cy="197.6" r="6"/><circle class="cls-12" cx="166.25" cy="143.25" r="5"/><circle class="cls-12" cx="47.25" cy="59.25" r="4"/><circle class="cls-12" cx="82.25" cy="43.25" r="3"/><circle class="cls-12" cx="175.25" cy="207.25" r="2"/><circle class="cls-12" cx="172.25" cy="192.25" r="1"/><circle class="cls-13" cx="245.25" cy="174.25" r="5"/><circle class="cls-13" cx="103.25" cy="229.25" r="4"/><circle class="cls-13" cx="201.25" cy="173.25" r="3"/><circle class="cls-13" cx="11.25" cy="137.25" r="2"/><circle class="cls-13" cx="186.75" cy="23.75" r="1"/><circle class="cls-14" cx="123.25" cy="41.25" r="5"/><circle class="cls-14" cx="61.25" cy="132.25" r="4"/><circle class="cls-14" cx="34.25" cy="228.25" r="3"/><circle class="cls-14" cx="34.25" cy="104.25" r="2"/><circle class="cls-14" cx="172.75" cy="47.75" r="1"/><circle class="cls-15" cx="10.75" cy="117.75" r="5"/><circle class="cls-15" cx="190" cy="194" r="4"/><circle class="cls-15" cx="182.25" cy="170.25" r="3"/><circle class="cls-15" cx="156.25" cy="27.25" r="2"/><circle class="cls-15" cx="210.25" cy="219.25" r="1"/></g></svg>