<svg xmlns="http://www.w3.org/2000/svg" viewBox="0 0 256 256"><defs><style>.cls-1{fill:#ffc444;}.cls-2{fill:#ffe76e;}.cls-3{fill:#2fb1ea;}.cls-4{fill:#cbecf9;}.cls-5{fill:#fff;}.cls-6{fill:#52e355;}.cls-7{fill:#90fc95;}.cls-8{fill:#d4ffd4;}.cls-9{fill:#ffbdbd;}.cls-10{fill:#bbf1ff;}.cls-11{fill:#fff4c5;}</style></defs><title>business economic finance interprise company balance</title><g id="Layer_2" data-name="Layer 2"><path class="cls-1" d="M24,89.8a20,20,0,1,0,40,0Z"/><path class="cls-2" d="M24,89.8c0,7.84,7.59,14.2,17,14.2s17-6.36,17-14.2Z"/><path class="cls-3" d="M44,111.8a22,22,0,0,1-22-22,2,2,0,0,1,2-2H64a2,2,0,0,1,2,2A22,22,0,0,1,44,111.8Zm-17.89-20a18,18,0,0,0,35.78,0Z"/><path class="cls-3" d="M64,91.8a2,2,0,0,1-1.81-1.15L44,51.66l-18.19,39A2,2,0,0,1,22.19,89l20-42.88a2,2,0,0,1,3.63,0L65.81,89A2,2,0,0,1,64,91.8Z"/><path class="cls-1" d="M192,123.94a20,20,0,0,0,40,0Z"/><path class="cls-2" d="M192,123.94c0,7.84,7.59,14.2,17,14.2s17-6.36,17-14.2Z"/><path class="cls-3" d="M212,145.95a22,22,0,0,1-22-22,2,2,0,0,1,2-2h40a2,2,0,0,1,2,2A22,22,0,0,1,212,145.95Zm-17.89-20a18,18,0,0,0,35.78,0Z"/><path class="cls-3" d="M232,125.95a2,2,0,0,1-1.81-1.15L212,85.8l-18.19,39a2,2,0,0,1-3.62-1.69l20-42.88a2,2,0,0,1,3.63,0l20,42.88a2,2,0,0,1-1.81,2.85Z"/><path class="cls-3" d="M212,83.07a2,2,0,0,1-.4,0L43.6,48.89A2,2,0,1,1,44.4,45l168,34.14a2,2,0,0,1-.4,4Z"/><rect class="cls-4" x="122" y="64" width="12" height="136"/><rect class="cls-5" x="122" y="89.32" width="6" height="110.68"/><path class="cls-3" d="M134,202H122a2,2,0,0,1-2-2V64a2,2,0,0,1,2-2h12a2,2,0,0,1,2,2V200A2,2,0,0,1,134,202Zm-10-4h8V66h-8Z"/><circle class="cls-6" cx="128" cy="64" r="20"/><circle class="cls-7" cx="124.53" cy="60.53" r="16.53"/><path class="cls-3" d="M128,86a22,22,0,1,1,22-22A22,22,0,0,1,128,86Zm0-40a18,18,0,1,0,18,18A18,18,0,0,0,128,46Z"/><rect class="cls-6" x="44" y="200" width="168" height="12"/><rect class="cls-7" x="44" y="200" width="161.27" height="6"/><path class="cls-3" d="M212,214H44a2,2,0,0,1-2-2V200a2,2,0,0,1,2-2H212a2,2,0,0,1,2,2v12A2,2,0,0,1,212,214ZM46,210H210v-8H46Z"/><circle class="cls-8" cx="47" cy="132.94" r="5"/><circle class="cls-8" cx="161" cy="172.94" r="4"/><circle class="cls-8" cx="179" cy="124.94" r="3"/><circle class="cls-8" cx="163" cy="104.94" r="2"/><circle class="cls-8" cx="59" cy="54" r="1"/><circle class="cls-9" cx="103" cy="139.94" r="5"/><circle class="cls-9" cx="161.12" cy="81.81" r="4"/><circle class="cls-9" cx="84.87" cy="82.06" r="3"/><circle class="cls-9" cx="48.87" cy="82.06" r="2"/><circle class="cls-9" cx="47.13" cy="172.81" r="1"/><circle class="cls-10" cx="145" cy="228.94" r="5"/><circle class="cls-10" cx="247.88" cy="153.06" r="4"/><circle class="cls-10" cx="104.87" cy="25.06" r="3"/><circle class="cls-10" cx="75" cy="146.94" r="2"/><circle class="cls-10" cx="205.87" cy="225.06" r="1"/><circle class="cls-11" cx="154" cy="134.94" r="5"/><circle class="cls-11" cx="8.12" cy="115.81" r="4"/><circle class="cls-11" cx="79" cy="121.94" r="3"/><circle class="cls-11" cx="75.13" cy="171.81" r="2"/><circle class="cls-11" cx="158" cy="102.94" r="1"/></g></svg>