<svg xmlns="http://www.w3.org/2000/svg" viewBox="0 0 256 256"><defs><style>.cls-1{fill:#cbecf9;}.cls-2{fill:#fff;}.cls-3{fill:#2fb1ea;}.cls-4{fill:#6dd0fc;}.cls-5{fill:#a4ecff;}.cls-6{fill:#f88;}.cls-7{fill:#ffe76e;}.cls-8{fill:#90fc95;}.cls-9{fill:#d4ffd4;}.cls-10{fill:#ffbdbd;}.cls-11{fill:#bbf1ff;}.cls-12{fill:#fff4c5;}</style></defs><title>business economic finance interprise company browser</title><g id="Layer_2" data-name="Layer 2"><path class="cls-1" d="M232,74V200a12,12,0,0,1-12,12H36a12,12,0,0,1-12-12V74Z"/><path class="cls-2" d="M223.87,81.87v110a12,12,0,0,1-12,12H36a12,12,0,0,1-12-12v-110Z"/><path class="cls-3" d="M220,214H36a14,14,0,0,1-14-14V74a2,2,0,0,1,2-2H232a2,2,0,0,1,2,2V200A14,14,0,0,1,220,214ZM26,76V200a10,10,0,0,0,10,10H220a10,10,0,0,0,10-10V76Z"/><path class="cls-4" d="M232,56V74H24V56A12,12,0,0,1,36,44H220A12,12,0,0,1,232,56Z"/><path class="cls-5" d="M223.87,66.81V56a12,12,0,0,0-12-12H36A12,12,0,0,0,24,56V66.81Z"/><path class="cls-3" d="M232,76H24a2,2,0,0,1-2-2V56A14,14,0,0,1,36,42H220a14,14,0,0,1,14,14V74A2,2,0,0,1,232,76ZM26,72H230V56a10,10,0,0,0-10-10H36A10,10,0,0,0,26,56Z"/><circle class="cls-6" cx="44" cy="59" r="6"/><circle class="cls-7" cx="68" cy="59" r="6"/><circle class="cls-8" cx="92" cy="59" r="6"/><rect class="cls-5" x="44.13" y="102.01" width="15.72" height="81.98" rx="7.86" ry="7.86"/><rect class="cls-5" x="74.53" y="102.01" width="15.72" height="81.98" rx="7.86" ry="7.86"/><rect class="cls-5" x="104.94" y="102.01" width="15.72" height="81.98" rx="7.86" ry="7.86"/><rect class="cls-5" x="135.34" y="102.01" width="15.72" height="81.98" rx="7.86" ry="7.86"/><rect class="cls-5" x="165.75" y="102.01" width="15.72" height="81.98" rx="7.86" ry="7.86"/><path class="cls-7" d="M44.13,115.22H59.85a0,0,0,0,1,0,0v60.91A7.86,7.86,0,0,1,52,184h0a7.86,7.86,0,0,1-7.86-7.86V115.22A0,0,0,0,1,44.13,115.22Z"/><path class="cls-7" d="M74.53,133.65H90.25a0,0,0,0,1,0,0v42.48A7.86,7.86,0,0,1,82.39,184h0a7.86,7.86,0,0,1-7.86-7.86V133.65A0,0,0,0,1,74.53,133.65Z"/><path class="cls-7" d="M104.94,133.65h15.72a0,0,0,0,1,0,0v42.48A7.86,7.86,0,0,1,112.8,184h0a7.86,7.86,0,0,1-7.86-7.86V133.65A0,0,0,0,1,104.94,133.65Z"/><path class="cls-7" d="M135.34,143.32h15.72a0,0,0,0,1,0,0v32.81A7.86,7.86,0,0,1,143.2,184h0a7.86,7.86,0,0,1-7.86-7.86V143.32A0,0,0,0,1,135.34,143.32Z"/><path class="cls-7" d="M165.75,122.62h15.72a0,0,0,0,1,0,0v53.51a7.86,7.86,0,0,1-7.86,7.86h0a7.86,7.86,0,0,1-7.86-7.86V122.62A0,0,0,0,1,165.75,122.62Z"/><rect class="cls-7" x="196.15" y="102.01" width="15.72" height="81.98" rx="7.86" ry="7.86"/><circle class="cls-9" cx="204" cy="220" r="5"/><circle class="cls-9" cx="113" cy="31" r="4"/><circle class="cls-9" cx="209" cy="33" r="3"/><circle class="cls-9" cx="12" cy="153" r="2"/><circle class="cls-9" cx="29" cy="229" r="1"/><circle class="cls-10" cx="7" cy="215" r="5"/><circle class="cls-10" cx="242" cy="159" r="4"/><circle class="cls-10" cx="14" cy="62" r="3"/><circle class="cls-10" cx="238" cy="206" r="2"/><circle class="cls-10" cx="237" cy="110" r="1"/><circle class="cls-11" cx="151" cy="28" r="5"/><circle class="cls-11" cx="12" cy="118" r="4"/><circle class="cls-11" cx="135" cy="220" r="3"/><circle class="cls-11" cx="242" cy="136" r="2"/><circle class="cls-11" cx="43" cy="31" r="1"/><circle class="cls-12" cx="249" cy="57" r="5"/><circle class="cls-12" cx="8" cy="138" r="4"/><circle class="cls-12" cx="80" cy="33" r="3"/><circle class="cls-12" cx="176" cy="31" r="2"/><circle class="cls-12" cx="98" cy="232" r="1"/></g></svg>