<svg xmlns="http://www.w3.org/2000/svg" viewBox="0 0 256 256"><defs><style>.cls-1{fill:#52e355;}.cls-2{fill:#90fc95;}.cls-3{fill:#2fb1ea;}.cls-4{fill:#cbecf9;}.cls-5{fill:#fff;}.cls-6{fill:#ffc444;}.cls-7{fill:#ffe76e;}.cls-8{fill:#d4ffd4;}.cls-9{fill:#ffbdbd;}.cls-10{fill:#bbf1ff;}.cls-11{fill:#fff4c5;}</style></defs><title>business economic finance interprise company calculator</title><g id="Layer_2" data-name="Layer 2"><rect class="cls-1" x="54" y="24" width="148" height="208" rx="12" ry="12"/><rect class="cls-2" x="54" y="24" width="137.81" height="196" rx="12" ry="12"/><path class="cls-3" d="M190,234H66a14,14,0,0,1-14-14V36A14,14,0,0,1,66,22H190a14,14,0,0,1,14,14V220A14,14,0,0,1,190,234ZM66,26A10,10,0,0,0,56,36V220a10,10,0,0,0,10,10H190a10,10,0,0,0,10-10V36a10,10,0,0,0-10-10Z"/><rect class="cls-1" x="90.81" y="14.73" width="65.28" height="109.09" transform="translate(192.73 -54.18) rotate(90)"/><rect class="cls-4" x="99.04" y="22.96" width="57.91" height="100" transform="translate(200.96 -55.04) rotate(90)"/><rect class="cls-5" x="106.53" y="30.44" width="50.43" height="92.51" transform="translate(208.44 -55.04) rotate(90)"/><path class="cls-3" d="M178,103.91H78a2,2,0,0,1-2-2V44a2,2,0,0,1,2-2H178a2,2,0,0,1,2,2v57.91A2,2,0,0,1,178,103.91Zm-98-4h96V46H80Z"/><rect class="cls-6" x="78" y="126" width="34.16" height="34.16" rx="6" ry="6"/><rect class="cls-7" x="78" y="126" width="28.34" height="28.34" rx="4.98" ry="4.98"/><path class="cls-3" d="M106.16,162.16H84a8,8,0,0,1-8-8V132a8,8,0,0,1,8-8h22.16a8,8,0,0,1,8,8v22.16A8,8,0,0,1,106.16,162.16ZM84,128a4,4,0,0,0-4,4v22.16a4,4,0,0,0,4,4h22.16a4,4,0,0,0,4-4V132a4,4,0,0,0-4-4Z"/><rect class="cls-6" x="78" y="177.84" width="34.16" height="34.16" rx="6" ry="6"/><rect class="cls-7" x="78" y="177.84" width="28.34" height="28.34" rx="4.98" ry="4.98"/><path class="cls-3" d="M106.16,214H84a8,8,0,0,1-8-8V183.84a8,8,0,0,1,8-8h22.16a8,8,0,0,1,8,8V206A8,8,0,0,1,106.16,214ZM84,179.84a4,4,0,0,0-4,4V206a4,4,0,0,0,4,4h22.16a4,4,0,0,0,4-4V183.84a4,4,0,0,0-4-4Z"/><rect class="cls-6" x="143.84" y="126" width="34.16" height="34.16" rx="6" ry="6"/><rect class="cls-7" x="143.84" y="126" width="28.34" height="28.34" rx="4.98" ry="4.98"/><path class="cls-3" d="M172,162.16H149.84a8,8,0,0,1-8-8V132a8,8,0,0,1,8-8H172a8,8,0,0,1,8,8v22.16A8,8,0,0,1,172,162.16ZM149.84,128a4,4,0,0,0-4,4v22.16a4,4,0,0,0,4,4H172a4,4,0,0,0,4-4V132a4,4,0,0,0-4-4Z"/><rect class="cls-6" x="143.84" y="177.84" width="34.16" height="34.16" rx="6" ry="6"/><rect class="cls-7" x="143.84" y="177.84" width="28.34" height="28.34" rx="4.98" ry="4.98"/><path class="cls-3" d="M172,214H149.84a8,8,0,0,1-8-8V183.84a8,8,0,0,1,8-8H172a8,8,0,0,1,8,8V206A8,8,0,0,1,172,214Zm-22.16-34.16a4,4,0,0,0-4,4V206a4,4,0,0,0,4,4H172a4,4,0,0,0,4-4V183.84a4,4,0,0,0-4-4Z"/><path class="cls-3" d="M103.79,145.08H86.38a2,2,0,0,1,0-4h17.41a2,2,0,0,1,0,4Z"/><path class="cls-3" d="M169.63,191.37H152.21a2,2,0,0,1,0-4h17.41a2,2,0,0,1,0,4Z"/><path class="cls-3" d="M169.63,202.46H152.21a2,2,0,0,1,0-4h17.41a2,2,0,0,1,0,4Z"/><path class="cls-3" d="M169.63,145.08H152.21a2,2,0,0,1,0-4h17.41a2,2,0,0,1,0,4Z"/><path class="cls-3" d="M160.92,153.79a2,2,0,0,1-2-2V134.38a2,2,0,0,1,4,0v17.41A2,2,0,0,1,160.92,153.79Z"/><path class="cls-3" d="M101.24,203.08a2,2,0,0,1-1.41-.59L87.51,190.18a2,2,0,0,1,2.83-2.83l12.31,12.31a2,2,0,0,1-1.41,3.41Z"/><path class="cls-3" d="M88.92,203.08a2,2,0,0,1-1.41-3.41l12.31-12.31a2,2,0,0,1,2.83,2.83L90.34,202.49A2,2,0,0,1,88.92,203.08Z"/><circle class="cls-8" cx="26.5" cy="109" r="5"/><circle class="cls-8" cx="124.5" cy="248" r="4"/><circle class="cls-8" cx="212.5" cy="121" r="3"/><circle class="cls-8" cx="185.5" cy="6" r="2"/><circle class="cls-8" cx="236.5" cy="50" r="1"/><circle class="cls-9" cx="217.5" cy="82" r="5"/><circle class="cls-9" cx="215.5" cy="11" r="4"/><circle class="cls-9" cx="28.5" cy="162" r="3"/><circle class="cls-9" cx="21.5" cy="67" r="2"/><circle class="cls-9" cx="81.5" cy="16" r="1"/><circle class="cls-10" cx="41.5" cy="234" r="5"/><circle class="cls-10" cx="104.5" cy="16" r="4"/><circle class="cls-10" cx="40.5" cy="12" r="3"/><circle class="cls-10" cx="221.5" cy="238" r="2"/><circle class="cls-10" cx="205.5" cy="230" r="1"/><circle class="cls-11" cx="23.5" cy="186" r="5"/><circle class="cls-11" cx="225.5" cy="192" r="4"/><circle class="cls-11" cx="171.5" cy="243" r="3"/><circle class="cls-11" cx="69.5" cy="239" r="2"/><circle class="cls-11" cx="153.5" cy="15" r="1"/></g></svg>