<svg xmlns="http://www.w3.org/2000/svg" viewBox="0 0 256 256"><defs><style>.cls-1{fill:#f97171;}.cls-2{fill:#f88;}.cls-3{fill:#2fb1ea;}.cls-4{fill:#cbecf9;}.cls-5{fill:#fff;}.cls-6{fill:#52e355;}.cls-7{fill:#90fc95;}.cls-8{fill:#a4ecff;}.cls-9{fill:#d4ffd4;}.cls-10{fill:#ffbdbd;}.cls-11{fill:#bbf1ff;}.cls-12{fill:#fff4c5;}</style></defs><title>business economic finance interprise company calendar</title><g id="Layer_2" data-name="Layer 2"><path class="cls-1" d="M198.45,89.42v13.42H24V89.42A16.77,16.77,0,0,1,40.77,72.65h140.9A16.77,16.77,0,0,1,198.45,89.42Z"/><path class="cls-2" d="M198.45,89.42v6.71H24V89.42A16.77,16.77,0,0,1,40.77,72.65h140.9A16.77,16.77,0,0,1,198.45,89.42Z"/><path class="cls-3" d="M198.45,104.84H24a2,2,0,0,1-2-2V89.42A18.8,18.8,0,0,1,40.77,70.65h140.9a18.8,18.8,0,0,1,18.77,18.77v13.42A2,2,0,0,1,198.45,104.84ZM26,100.84H196.45V89.42a14.79,14.79,0,0,0-14.77-14.77H40.77A14.79,14.79,0,0,0,26,89.42Z"/><path class="cls-4" d="M198.45,102.84v78.84a16.77,16.77,0,0,1-16.77,16.77H40.77A16.77,16.77,0,0,1,24,181.68V102.84Z"/><path class="cls-5" d="M188.39,109.56v63.57a16.77,16.77,0,0,1-16.77,16.77H40.77A16.77,16.77,0,0,1,24,173.13V109.56Z"/><path class="cls-3" d="M181.68,200.45H40.77A18.8,18.8,0,0,1,22,181.68V102.84a2,2,0,0,1,2-2H198.45a2,2,0,0,1,2,2v78.84A18.8,18.8,0,0,1,181.68,200.45ZM26,104.84v76.84a14.79,14.79,0,0,0,14.77,14.77h140.9a14.79,14.79,0,0,0,14.77-14.77V104.84Z"/><rect class="cls-5" x="50.84" y="57.55" width="20.13" height="30.19" rx="10.06" ry="10.06"/><path class="cls-3" d="M60.9,89.74A12.08,12.08,0,0,1,48.84,77.68V67.61a12.06,12.06,0,1,1,24.13,0V77.68A12.08,12.08,0,0,1,60.9,89.74Zm0-30.19a8.07,8.07,0,0,0-8.06,8.06V77.68a8.06,8.06,0,1,0,16.13,0V67.61A8.07,8.07,0,0,0,60.9,59.55Z"/><rect class="cls-5" x="151.48" y="57.55" width="20.13" height="30.19" rx="10.06" ry="10.06"/><path class="cls-3" d="M161.55,89.74a12.08,12.08,0,0,1-12.06-12.06V67.61a12.06,12.06,0,0,1,24.13,0V77.68A12.08,12.08,0,0,1,161.55,89.74Zm0-30.19a8.07,8.07,0,0,0-8.06,8.06V77.68a8.06,8.06,0,0,0,16.13,0V67.61A8.07,8.07,0,0,0,161.55,59.55Z"/><circle class="cls-6" cx="198.45" cy="102.84" r="33.55"/><circle class="cls-7" cx="198.45" cy="98.65" r="29.35"/><path class="cls-3" d="M198.45,138.39A35.55,35.55,0,1,1,234,102.84,35.59,35.59,0,0,1,198.45,138.39Zm0-67.1A31.55,31.55,0,1,0,230,102.84,31.58,31.58,0,0,0,198.45,71.29Z"/><path class="cls-3" d="M210.19,114.9a2,2,0,0,1-1.3-.48l-11.74-10.06a2,2,0,0,1-.7-1.52V79.35a2,2,0,1,1,4,0v22.56l11,9.47a2,2,0,0,1-1.3,3.52Z"/><rect class="cls-8" x="84.39" y="122.97" width="20.13" height="20.13" rx="5.03" ry="5.03"/><rect class="cls-8" x="117.94" y="122.97" width="20.13" height="20.13" rx="5.03" ry="5.03"/><rect class="cls-8" x="151.48" y="122.97" width="20.13" height="20.13" rx="5.03" ry="5.03"/><rect class="cls-8" x="50.84" y="158.19" width="20.13" height="20.13" rx="5.03" ry="5.03"/><rect class="cls-8" x="84.39" y="158.19" width="20.13" height="20.13" rx="5.03" ry="5.03"/><rect class="cls-8" x="117.94" y="158.19" width="20.13" height="20.13" rx="5.03" ry="5.03"/><circle class="cls-9" cx="207" cy="226" r="5"/><circle class="cls-9" cx="114" cy="39" r="4"/><circle class="cls-9" cx="212" cy="62" r="3"/><circle class="cls-9" cx="151" cy="209" r="2"/><circle class="cls-9" cx="29" cy="229" r="1"/><circle class="cls-10" cx="7" cy="215" r="5"/><circle class="cls-10" cx="63" cy="225" r="4"/><circle class="cls-10" cx="19" cy="68" r="3"/><circle class="cls-10" cx="238" cy="206" r="2"/><circle class="cls-10" cx="237" cy="110" r="1"/><circle class="cls-11" cx="151" cy="28" r="5"/><circle class="cls-11" cx="12" cy="118" r="4"/><circle class="cls-11" cx="117" cy="228" r="3"/><circle class="cls-11" cx="106" cy="60" r="2"/><circle class="cls-11" cx="43" cy="31" r="1"/><circle class="cls-12" cx="249" cy="57" r="5"/><circle class="cls-12" cx="224" cy="151" r="4"/><circle class="cls-12" cx="74" cy="47" r="3"/><circle class="cls-12" cx="176" cy="44" r="2"/><circle class="cls-12" cx="98" cy="232" r="1"/></g></svg>