<svg xmlns="http://www.w3.org/2000/svg" viewBox="0 0 256 256"><defs><style>.cls-1{fill:#d4ffd4;}.cls-2{fill:#ffbdbd;}.cls-3{fill:#bbf1ff;}.cls-4{fill:#fff4c5;}.cls-5{fill:#cbecf9;}.cls-6{fill:#fff;}.cls-7{fill:#2fb1ea;}.cls-8{fill:#ffc444;}.cls-9{fill:#ffe76e;}.cls-10{fill:#90fc95;}.cls-11{fill:#f88;}</style></defs><title>business economic finance interprise company chat</title><g id="Layer_2" data-name="Layer 2"><circle class="cls-1" cx="49" cy="232" r="5"/><circle class="cls-1" cx="144" cy="27" r="4"/><circle class="cls-1" cx="77" cy="132" r="3"/><circle class="cls-1" cx="144" cy="137" r="2"/><circle class="cls-1" cx="227" cy="230" r="1"/><circle class="cls-2" cx="249" cy="216" r="5"/><circle class="cls-2" cx="56" cy="31" r="4"/><circle class="cls-2" cx="187" cy="129" r="3"/><circle class="cls-2" cx="18" cy="207" r="2"/><circle class="cls-2" cx="19" cy="111" r="1"/><circle class="cls-3" cx="105" cy="24" r="5"/><circle class="cls-3" cx="234" cy="131" r="4"/><circle class="cls-3" cx="139" cy="229" r="3"/><circle class="cls-3" cx="103" cy="127" r="2"/><circle class="cls-3" cx="213" cy="32" r="1"/><circle class="cls-4" cx="7" cy="31" r="5"/><circle class="cls-4" cx="24" cy="131" r="4"/><circle class="cls-4" cx="182" cy="24" r="3"/><circle class="cls-4" cx="156" cy="137" r="2"/><circle class="cls-4" cx="158" cy="233" r="1"/><circle class="cls-5" cx="57.55" cy="77.61" r="33.55"/><circle class="cls-6" cx="57.55" cy="72.42" r="28.35"/><path class="cls-7" d="M57.55,113.16A35.55,35.55,0,1,1,93.1,77.61,35.59,35.59,0,0,1,57.55,113.16Zm0-67.1A31.55,31.55,0,1,0,89.1,77.61,31.58,31.58,0,0,0,57.55,46.06Z"/><path class="cls-8" d="M32.39,77.61a25.16,25.16,0,0,0,50.32,0Z"/><path class="cls-9" d="M38.19,83.41a19.36,19.36,0,0,0,38.72,0Z"/><path class="cls-7" d="M57.55,104.77A27.19,27.19,0,0,1,30.39,77.61a2,2,0,0,1,2-2H82.71a2,2,0,0,1,2,2A27.19,27.19,0,0,1,57.55,104.77ZM34.47,79.61a23.16,23.16,0,0,0,46.15,0Z"/><circle class="cls-5" cx="198.45" cy="178.39" r="33.55"/><circle class="cls-6" cx="198.45" cy="173.19" r="28.35"/><path class="cls-7" d="M198.45,213.94A35.55,35.55,0,1,1,234,178.39,35.59,35.59,0,0,1,198.45,213.94Zm0-67.1A31.55,31.55,0,1,0,230,178.39,31.58,31.58,0,0,0,198.45,146.84Z"/><path class="cls-8" d="M173.29,178.39a25.16,25.16,0,0,0,50.32,0Z"/><path class="cls-9" d="M179.09,184.19a19.36,19.36,0,0,0,38.72,0Z"/><path class="cls-7" d="M198.45,205.55a27.19,27.19,0,0,1-27.16-27.16,2,2,0,0,1,2-2h50.32a2,2,0,0,1,2,2A27.19,27.19,0,0,1,198.45,205.55Zm-23.08-25.16a23.16,23.16,0,0,0,46.15,0Z"/><path class="cls-5" d="M232,60.84V94.39a16.77,16.77,0,0,1-16.77,16.77H139.74A16.77,16.77,0,0,1,123,94.39L104.52,77.61,123,60.84a16.77,16.77,0,0,1,16.77-16.77h75.48A16.77,16.77,0,0,1,232,60.84Z"/><path class="cls-6" d="M225.23,60.84V87.29a16.77,16.77,0,0,1-16.77,16.77H144a16.77,16.77,0,0,1-16.77-16.77l-22.67-9.68L123,60.84a16.77,16.77,0,0,1,16.77-16.77h68.72A16.77,16.77,0,0,1,225.23,60.84Z"/><path class="cls-7" d="M215.23,113.16H139.74A18.8,18.8,0,0,1,121,95.29l-17.82-16.2a2,2,0,0,1,0-3L121,59.93a18.8,18.8,0,0,1,18.75-17.87h75.48A18.8,18.8,0,0,1,234,60.84V94.39A18.8,18.8,0,0,1,215.23,113.16ZM107.49,77.61l16.82,15.29a2,2,0,0,1,.65,1.48,14.79,14.79,0,0,0,14.77,14.77h75.48A14.79,14.79,0,0,0,230,94.39V60.84a14.79,14.79,0,0,0-14.77-14.77H139.74A14.79,14.79,0,0,0,125,60.84a2,2,0,0,1-.65,1.48Z"/><rect class="cls-10" x="136.39" y="60.84" width="78.84" height="10.06" rx="5.03" ry="5.03"/><rect class="cls-10" x="136.39" y="84.32" width="78.84" height="10.06" rx="5.03" ry="5.03"/><path class="cls-5" d="M24,161.61v33.55a16.77,16.77,0,0,0,16.77,16.77h75.48A16.77,16.77,0,0,0,133,195.16l18.45-16.77L133,161.61a16.77,16.77,0,0,0-16.77-16.77H40.77A16.77,16.77,0,0,0,24,161.61Z"/><path class="cls-6" d="M30.77,161.61v26.45a16.77,16.77,0,0,0,16.77,16.77H112a16.77,16.77,0,0,0,16.77-16.77l22.67-9.68L133,161.61a16.77,16.77,0,0,0-16.77-16.77H47.54A16.77,16.77,0,0,0,30.77,161.61Z"/><path class="cls-7" d="M116.26,213.94H40.77A18.8,18.8,0,0,1,22,195.16V161.61a18.8,18.8,0,0,1,18.77-18.77h75.48A18.8,18.8,0,0,1,135,160.71l17.82,16.2a2,2,0,0,1,0,3L135,196.07A18.8,18.8,0,0,1,116.26,213.94Zm-75.48-67.1A14.79,14.79,0,0,0,26,161.61v33.55a14.79,14.79,0,0,0,14.77,14.77h75.48A14.79,14.79,0,0,0,131,195.16a2,2,0,0,1,.65-1.48l16.82-15.29-16.82-15.29a2,2,0,0,1-.65-1.48,14.79,14.79,0,0,0-14.77-14.77Z"/><rect class="cls-11" x="40.77" y="161.61" width="78.84" height="10.06" rx="5.03" ry="5.03" transform="translate(160.39 333.29) rotate(180)"/><rect class="cls-11" x="40.77" y="185.1" width="78.84" height="10.06" rx="5.03" ry="5.03" transform="translate(160.39 380.26) rotate(180)"/></g></svg>