<svg xmlns="http://www.w3.org/2000/svg" viewBox="0 0 256 256"><defs><style>.cls-1{fill:#cbecf9;}.cls-2{fill:#fff;}.cls-3{fill:#2fb1ea;}.cls-4{fill:#e5f5fc;}.cls-5{fill:#ffd659;}.cls-6{fill:#ffc444;}.cls-7{fill:#ffe76e;}.cls-8{fill:#d4ffd4;}.cls-9{fill:#ffbdbd;}.cls-10{fill:#bbf1ff;}.cls-11{fill:#fff4c5;}</style></defs><title>business economic finance interprise company diamond</title><g id="Layer_2" data-name="Layer 2"><path class="cls-1" d="M164.89,63.43H192V172.15a11.32,11.32,0,0,1-11.32,11.32H75.32A11.32,11.32,0,0,1,64,172.15V36.32A11.32,11.32,0,0,1,75.32,25h78.26V52.11A11.32,11.32,0,0,0,164.89,63.43Z"/><path class="cls-2" d="M164.89,63.43H192v99.05a11.32,11.32,0,0,1-11.32,11.32H75.32A11.32,11.32,0,0,1,64,162.49V36.32A11.32,11.32,0,0,1,75.32,25h78.26V52.11A11.32,11.32,0,0,0,164.89,63.43Z"/><path class="cls-1" d="M192.12,70.78H165a11.32,11.32,0,0,1-11.32-11.32V32.35l38.43,32.26Z"/><path class="cls-3" d="M180.68,185.47H75.32A13.33,13.33,0,0,1,62,172.15V36.32A13.33,13.33,0,0,1,75.32,23h78.25a2,2,0,0,1,2,2V52.11a9.33,9.33,0,0,0,9.32,9.32H192a2,2,0,0,1,2,2V172.15A13.33,13.33,0,0,1,180.68,185.47ZM75.32,27A9.33,9.33,0,0,0,66,36.32V172.15a9.33,9.33,0,0,0,9.32,9.32H180.68a9.33,9.33,0,0,0,9.32-9.32V65.43H164.89a13.33,13.33,0,0,1-13.32-13.32V27Z"/><path class="cls-4" d="M192,63.43H164.89a11.32,11.32,0,0,1-11.32-11.32V25Z"/><path class="cls-3" d="M192,65.43H164.89a13.33,13.33,0,0,1-13.32-13.32V25A2,2,0,0,1,155,23.59L193.42,62A2,2,0,0,1,192,65.43Zm-36.43-35.6V52.11a9.33,9.33,0,0,0,9.32,9.32h22.28Z"/><polygon class="cls-5" points="126.03 68.59 102.94 68.59 114.49 84.36 126.03 68.59"/><polygon class="cls-6" points="89.44 87.05 125.83 136.27 113.7 87.05 89.44 87.05"/><polygon class="cls-5" points="153.06 68.59 129.97 68.59 141.51 84.36 153.06 68.59"/><polygon class="cls-7" points="139.54 85.05 128 69.29 116.46 85.05 139.54 85.05"/><polygon class="cls-7" points="100.97 69.29 89.43 85.05 112.52 85.05 100.97 69.29"/><polygon class="cls-7" points="166.57 85.05 155.03 69.29 143.49 85.05 166.57 85.05"/><polygon class="cls-5" points="115.76 87.05 128 136.7 140.24 87.05 115.76 87.05"/><polygon class="cls-6" points="130.17 136.27 166.56 87.05 142.3 87.05 130.17 136.27"/><path class="cls-3" d="M170.17,84.89v0L156.64,66.41A2.06,2.06,0,0,0,155,65.6H101a2,2,0,0,0-1.61.82L85.83,84.9a2,2,0,0,0,0,2.32v0l40.54,54.83a2,2,0,0,0,3.22,0l40.54-54.83v0A2,2,0,0,0,170.17,84.89ZM151.08,69.6l-9.57,13.07L131.94,69.6ZM137.57,84.05H118.43L128,71ZM124.06,69.6l-9.57,13.07L104.92,69.6ZM101,71l9.57,13.07H91.4ZM91.43,88.05h21.49l10.75,43.6ZM128,132.52,117,88.05H139Zm4.33-.87,10.75-43.6h21.49Zm13.12-47.6L155,71l9.57,13.07Z"/><path class="cls-7" d="M82.34,201.44l3.07,9.45a1.38,1.38,0,0,0,1.32,1h9.93a1.38,1.38,0,0,1,.81,2.5l-8,5.84a1.38,1.38,0,0,0-.5,1.55L92,231.18a1.38,1.38,0,0,1-2.13,1.55l-8-5.84a1.38,1.38,0,0,0-1.63,0l-8,5.84A1.38,1.38,0,0,1,70,231.18l3.07-9.45a1.38,1.38,0,0,0-.5-1.55l-8-5.84a1.38,1.38,0,0,1,.81-2.5h9.93a1.38,1.38,0,0,0,1.32-1l3.07-9.45A1.38,1.38,0,0,1,82.34,201.44Z"/><path class="cls-7" d="M129.32,201.44l3.07,9.45a1.38,1.38,0,0,0,1.32,1h9.93a1.38,1.38,0,0,1,.81,2.5l-8,5.84a1.38,1.38,0,0,0-.5,1.55l3.07,9.45a1.38,1.38,0,0,1-2.13,1.55l-8-5.84a1.38,1.38,0,0,0-1.63,0l-8,5.84a1.38,1.38,0,0,1-2.13-1.55l3.07-9.45a1.38,1.38,0,0,0-.5-1.55l-8-5.84a1.38,1.38,0,0,1,.81-2.5h9.93a1.38,1.38,0,0,0,1.32-1l3.07-9.45A1.38,1.38,0,0,1,129.32,201.44Z"/><path class="cls-7" d="M176.29,201.44l3.07,9.45a1.38,1.38,0,0,0,1.32,1h9.93a1.38,1.38,0,0,1,.81,2.5l-8,5.84a1.38,1.38,0,0,0-.5,1.55l3.07,9.45a1.38,1.38,0,0,1-2.13,1.55l-8-5.84a1.38,1.38,0,0,0-1.63,0l-8,5.84a1.38,1.38,0,0,1-2.13-1.55l3.07-9.45a1.38,1.38,0,0,0-.5-1.55l-8-5.84a1.38,1.38,0,0,1,.81-2.5h9.93a1.38,1.38,0,0,0,1.32-1l3.07-9.45A1.38,1.38,0,0,1,176.29,201.44Z"/><circle class="cls-8" cx="54" cy="205.5" r="5"/><circle class="cls-8" cx="215" cy="141.5" r="4"/><circle class="cls-8" cx="221" cy="46.5" r="3"/><circle class="cls-8" cx="56" cy="106.5" r="2"/><circle class="cls-8" cx="29" cy="226.5" r="1"/><circle class="cls-9" cx="99" cy="203.5" r="5"/><circle class="cls-9" cx="51" cy="178.5" r="4"/><circle class="cls-9" cx="191" cy="239.5" r="3"/><circle class="cls-9" cx="52" cy="17.5" r="2"/><circle class="cls-9" cx="146" cy="18.5" r="1"/><circle class="cls-10" cx="226" cy="104.5" r="5"/><circle class="cls-10" cx="138" cy="250.5" r="4"/><circle class="cls-10" cx="43" cy="124.5" r="3"/><circle class="cls-10" cx="55" cy="77.5" r="2"/><circle class="cls-10" cx="223" cy="212.5" r="1"/><circle class="cls-11" cx="133" cy="6.5" r="5"/><circle class="cls-11" cx="179" cy="15.5" r="4"/><circle class="cls-11" cx="221" cy="175.5" r="3"/><circle class="cls-11" cx="210" cy="79.5" r="2"/><circle class="cls-11" cx="26" cy="157.5" r="1"/></g></svg>