<svg xmlns="http://www.w3.org/2000/svg" viewBox="0 0 256 256"><defs><style>.cls-1{fill:#6dd0fc;}.cls-2{fill:#a4ecff;}.cls-3{fill:#2fb1ea;}.cls-4{fill:#cbecf9;}.cls-5{fill:#fff;}.cls-6{fill:#ffc444;}.cls-7{fill:#ffe76e;}.cls-8{fill:#52e355;}.cls-9{fill:#90fc95;}.cls-10{fill:#d4ffd4;}.cls-11{fill:#ffbdbd;}.cls-12{fill:#bbf1ff;}.cls-13{fill:#fff4c5;}</style></defs><title>business economic finance interprise company get money</title><g id="Layer_2" data-name="Layer 2"><rect class="cls-1" x="-8" y="174.07" width="64" height="40" transform="translate(218.07 170.07) rotate(90)"/><rect class="cls-2" x="-6.83" y="172.9" width="55.94" height="34.28" transform="translate(211.18 168.9) rotate(90)"/><path class="cls-3" d="M44,228.07H4a2,2,0,0,1-2-2v-64a2,2,0,0,1,2-2H44a2,2,0,0,1,2,2v64A2,2,0,0,1,44,228.07Zm-38-4H42v-60H6Z"/><rect class="cls-4" x="26.8" y="183.28" width="56" height="21.59" transform="translate(248.87 139.28) rotate(90)"/><rect class="cls-5" x="30.19" y="185.7" width="49.53" height="10.28" transform="translate(245.8 135.88) rotate(90)"/><path class="cls-3" d="M65.59,224.07H44a2,2,0,0,1-2-2v-56a2,2,0,0,1,2-2H65.59a2,2,0,0,1,2,2v56A2,2,0,0,1,65.59,224.07Zm-19.59-4H63.59v-52H46Z"/><path class="cls-6" d="M74.87,170.07H65.59v48h7.7A40.55,40.55,0,0,1,96,225h0a40.55,40.55,0,0,0,22.72,7h0a54.88,54.88,0,0,0,26.19-6.65l28.87-15.68a9.68,9.68,0,0,0,3.42-13.9h0A9.68,9.68,0,0,0,165,192.46l-24.81,12.05a32.63,32.63,0,0,1-18.67,3h0a32.63,32.63,0,0,1-19.73-10.38l-3-3.28a9.68,9.68,0,0,1,2-14.67l9.59-6.1a9.68,9.68,0,0,0,2.39-14.17l-.12-.15A9.68,9.68,0,0,0,100,156.47l-20.11,12.2A9.68,9.68,0,0,1,74.87,170.07Z"/><path class="cls-7" d="M177.22,195.77A9.68,9.68,0,0,0,165,192.46l-24.81,12.05a32.63,32.63,0,0,1-18.67,3c-7.59-1-18.63-8.77-23.78-14.43l-3-3.28a9.68,9.68,0,0,1,2-14.67l9.59-6.1c4.84-3.08,10-5.62,6.45-10.12l-.12-.15A9.68,9.68,0,0,0,100,156.47l-20.11,12.2a9.68,9.68,0,0,1-5,1.4H72v40.07H73.3a40.55,40.55,0,0,1,22.72,7h0a40.55,40.55,0,0,0,22.72,7,54.87,54.87,0,0,0,26.19-6.65l28.87-15.68C178.82,199,177.22,195.77,177.22,195.77Z"/><path class="cls-3" d="M118.74,234a42.4,42.4,0,0,1-23.85-7.31,38.42,38.42,0,0,0-21.6-6.62h-7.7a2,2,0,0,1-2-2v-48a2,2,0,0,1,2-2h9.27a7.66,7.66,0,0,0,4-1.11L99,154.76a11.69,11.69,0,0,1,15.21,2.74l.12.15a11.68,11.68,0,0,1-2.89,17.09l-9.59,6.1a7.68,7.68,0,0,0-1.56,11.64l3,3.28a30.63,30.63,0,0,0,36,7l24.81-12.05a11.68,11.68,0,0,1,10.67,20.76L145.89,227.1A57,57,0,0,1,118.74,234ZM67.59,216.07h5.7a42.4,42.4,0,0,1,23.85,7.31,38.42,38.42,0,0,0,21.6,6.62A53,53,0,0,0,144,223.59l28.87-15.68a7.68,7.68,0,0,0,2.71-11,7.71,7.71,0,0,0-9.73-2.63L141,206.31a34.63,34.63,0,0,1-40.75-7.86l-3-3.28a11.68,11.68,0,0,1,2.37-17.7l9.59-6.1a7.69,7.69,0,0,0,3.45-5.2,7.59,7.59,0,0,0-1.55-6L111,160a7.69,7.69,0,0,0-10-1.8l-20.11,12.2a11.67,11.67,0,0,1-6.06,1.69H67.59Z"/><circle class="cls-3" cx="24" cy="208.83" r="6"/><circle class="cls-8" cx="182" cy="137.18" r="30"/><circle class="cls-9" cx="182" cy="133.63" r="26.44"/><path class="cls-3" d="M182,169.18a32,32,0,1,1,32-32A32,32,0,0,1,182,169.18Zm0-60a28,28,0,1,0,28,28A28,28,0,0,0,182,109.18Z"/><path class="cls-6" d="M182,159.18a22,22,0,1,1,22-22A22,22,0,0,1,182,159.18Z"/><path class="cls-7" d="M182,159.18A19.15,19.15,0,1,1,201.15,140,19.17,19.17,0,0,1,182,159.18Z"/><path class="cls-3" d="M182,161.18a24,24,0,1,1,24-24A24,24,0,0,1,182,161.18Zm0-44a20,20,0,1,0,20,20A20,20,0,0,0,182,117.18Z"/><path class="cls-3" d="M184.25,134.68h-4.5a1.35,1.35,0,0,1,0-2.71h8.35a2.5,2.5,0,1,0,0-5h-3.6v-1.36a2.5,2.5,0,1,0-5,0V127a6.35,6.35,0,0,0,.25,12.7h4.5a1.35,1.35,0,0,1,0,2.71H175.9a2.5,2.5,0,0,0,0,5h3.6v1.36a2.5,2.5,0,0,0,5,0v-1.37a6.35,6.35,0,0,0-.25-12.7Z"/><circle class="cls-8" cx="134" cy="74" r="30"/><circle class="cls-9" cx="134" cy="70.44" r="26.44"/><path class="cls-3" d="M134,106a32,32,0,1,1,32-32A32,32,0,0,1,134,106Zm0-60a28,28,0,1,0,28,28A28,28,0,0,0,134,46Z"/><path class="cls-6" d="M134,96a22,22,0,1,1,22-22A22,22,0,0,1,134,96Z"/><path class="cls-7" d="M134,96a19.15,19.15,0,1,1,19.15-19.15A19.17,19.17,0,0,1,134,96Z"/><path class="cls-3" d="M134,98a24,24,0,1,1,24-24A24,24,0,0,1,134,98Zm0-44a20,20,0,1,0,20,20A20,20,0,0,0,134,54Z"/><path class="cls-3" d="M136.25,71.5h-4.5a1.35,1.35,0,0,1,0-2.71h8.35a2.5,2.5,0,0,0,0-5h-3.6V62.43a2.5,2.5,0,0,0-5,0V63.8a6.35,6.35,0,0,0,.25,12.7h4.5a1.35,1.35,0,1,1,0,2.71H127.9a2.5,2.5,0,0,0,0,5h3.6v1.36a2.5,2.5,0,0,0,5,0V84.2a6.35,6.35,0,0,0-.25-12.7Z"/><circle class="cls-8" cx="222" cy="54" r="30"/><circle class="cls-9" cx="222" cy="50.44" r="26.44"/><path class="cls-3" d="M222,86a32,32,0,1,1,32-32A32,32,0,0,1,222,86Zm0-60a28,28,0,1,0,28,28A28,28,0,0,0,222,26Z"/><path class="cls-6" d="M222,76a22,22,0,1,1,22-22A22,22,0,0,1,222,76Z"/><path class="cls-7" d="M222,76a19.15,19.15,0,1,1,19.15-19.15A19.17,19.17,0,0,1,222,76Z"/><path class="cls-3" d="M222,78a24,24,0,1,1,24-24A24,24,0,0,1,222,78Zm0-44a20,20,0,1,0,20,20A20,20,0,0,0,222,34Z"/><path class="cls-3" d="M224.25,51.5h-4.5a1.35,1.35,0,0,1,0-2.71h8.35a2.5,2.5,0,0,0,0-5h-3.6V42.43a2.5,2.5,0,0,0-5,0V43.8a6.35,6.35,0,0,0,.25,12.7h4.5a1.35,1.35,0,1,1,0,2.71H215.9a2.5,2.5,0,1,0,0,5h3.6v1.36a2.5,2.5,0,0,0,5,0V64.2a6.35,6.35,0,0,0-.25-12.7Z"/><circle class="cls-10" cx="93.5" cy="123" r="5"/><circle class="cls-10" cx="60.5" cy="84" r="4"/><circle class="cls-10" cx="173.5" cy="43" r="3"/><circle class="cls-10" cx="88" cy="235.5" r="2"/><circle class="cls-10" cx="46" cy="57.5" r="1"/><circle class="cls-11" cx="11" cy="129.5" r="5"/><circle class="cls-11" cx="124" cy="249.5" r="4"/><circle class="cls-11" cx="100" cy="21.5" r="3"/><circle class="cls-11" cx="244.5" cy="170" r="2"/><circle class="cls-11" cx="69" cy="23.5" r="1"/><circle class="cls-12" cx="130" cy="7.5" r="5"/><circle class="cls-12" cx="128.5" cy="129" r="4"/><circle class="cls-12" cx="227.5" cy="235" r="3"/><circle class="cls-12" cx="221.5" cy="104" r="2"/><circle class="cls-12" cx="83" cy="47.5" r="1"/><circle class="cls-13" cx="245" cy="117.5" r="5"/><circle class="cls-13" cx="128.5" cy="181" r="4"/><circle class="cls-13" cx="70.5" cy="67" r="3"/><circle class="cls-13" cx="44.5" cy="132" r="2"/><circle class="cls-13" cx="60.5" cy="233" r="1"/></g></svg>