<svg xmlns="http://www.w3.org/2000/svg" viewBox="0 0 256 256"><defs><style>.cls-1{fill:#cbecf9;}.cls-2{fill:#fff;}.cls-3{fill:#2fb1ea;}.cls-4{fill:#ffc444;}.cls-5{fill:#ffe76e;}.cls-6{fill:#ffb32f;}.cls-7{fill:#d4ffd4;}.cls-8{fill:#ffbdbd;}.cls-9{fill:#bbf1ff;}.cls-10{fill:#fff4c5;}</style></defs><title>business economic finance interprise company investment</title><g id="Layer_2" data-name="Layer 2"><path class="cls-1" d="M205.36,98.59a60.39,60.39,0,0,0-106-33.4,38.83,38.83,0,0,0-55.86,34.89c0,.35,0,.69,0,1a38.82,38.82,0,0,0,16.38,74h136.3a38.82,38.82,0,0,0,9.21-76.53Z"/><path class="cls-2" d="M194.87,104C192,73.37,176.64,44,145.25,44A60.25,60.25,0,0,0,99.32,65.19a38.83,38.83,0,0,0-55.86,34.89c0,.35,0,.69,0,1A38.81,38.81,0,0,0,21,136.3C21,157.74,38.41,164,59.85,164H185.66c21.44,0,38.82-6.26,38.82-27.7C224.48,118,211.87,108.13,194.87,104Z"/><path class="cls-3" d="M196.15,177.12H59.85A40.82,40.82,0,0,1,41.46,99.86,40.87,40.87,0,0,1,82.28,59.25,40.38,40.38,0,0,1,98.8,62.74,62.39,62.39,0,0,1,207.2,97a40.82,40.82,0,0,1-11.06,80.12ZM82.28,63.25a36.86,36.86,0,0,0-36.82,36.82v1a2,2,0,0,1-1.16,1.81,36.82,36.82,0,0,0,15.54,70.2h136.3a36.82,36.82,0,0,0,8.74-72.59,2,2,0,0,1-1.52-1.75A58.39,58.39,0,0,0,100.84,66.49a2,2,0,0,1-2.4.5A36.41,36.41,0,0,0,82.28,63.25Z"/><circle class="cls-4" cx="128" cy="175.12" r="36.88"/><circle class="cls-5" cx="128" cy="170.79" r="32.54"/><path class="cls-3" d="M128,214a38.88,38.88,0,1,1,38.88-38.88A38.92,38.92,0,0,1,128,214Zm0-73.76a34.88,34.88,0,1,0,34.88,34.88A34.92,34.92,0,0,0,128,140.24Z"/><path class="cls-6" d="M132.61,170.62h-9.22a3.4,3.4,0,0,1,0-6.81h17.12a4.5,4.5,0,1,0,0-9h-8v-3.4a4.5,4.5,0,0,0-9,0v3.4h-.11a12.4,12.4,0,0,0,0,24.81h9.22a3.4,3.4,0,1,1,0,6.8H115.49a4.5,4.5,0,1,0,0,9h8v3.4a4.5,4.5,0,0,0,9,0v-3.4h.11a12.4,12.4,0,1,0,0-24.8Z"/><circle class="cls-7" cx="29" cy="83.75" r="5"/><circle class="cls-7" cx="80" cy="39.75" r="4"/><circle class="cls-7" cx="224" cy="200.75" r="3"/><circle class="cls-7" cx="199" cy="59" r="2"/><circle class="cls-7" cx="38" cy="49.75" r="1"/><circle class="cls-8" cx="234" cy="171" r="5"/><circle class="cls-8" cx="18" cy="42.75" r="4"/><circle class="cls-8" cx="19" cy="180.75" r="3"/><circle class="cls-8" cx="232" cy="51.75" r="2"/><circle class="cls-8" cx="240" cy="144.75" r="1"/><circle class="cls-9" cx="152" cy="215.25" r="5"/><circle class="cls-9" cx="228" cy="80.75" r="4"/><circle class="cls-9" cx="5" cy="88.75" r="3"/><circle class="cls-9" cx="55" cy="200.75" r="2"/><circle class="cls-9" cx="42" cy="201.75" r="1"/><circle class="cls-10" cx="249" cy="191.75" r="5"/><circle class="cls-10" cx="11" cy="117.75" r="4"/><circle class="cls-10" cx="74" cy="201.75" r="3"/><circle class="cls-10" cx="178" cy="193.75" r="2"/><circle class="cls-10" cx="228" cy="65.75" r="1"/></g></svg>