<svg xmlns="http://www.w3.org/2000/svg" viewBox="0 0 256 256"><defs><style>.cls-1{fill:#cbecf9;}.cls-2{fill:#fff;}.cls-3{fill:#2fb1ea;}.cls-4{fill:#f88;}.cls-5{fill:#52e355;}.cls-6{fill:#90fc95;}.cls-7{fill:#ffc444;}.cls-8{fill:#ffe76e;}.cls-9{fill:#d4ffd4;}.cls-10{fill:#ffbdbd;}.cls-11{fill:#bbf1ff;}.cls-12{fill:#fff4c5;}</style></defs><title>business economic finance interprise company invoice</title><g id="Layer_2" data-name="Layer 2"><path class="cls-1" d="M164,52.79,136,24,108,52.79,80,24,52,52.21,24,24V232l28-28.21L80,232l28-28.79L136,232l28-28.79L192,232V24Z"/><polygon class="cls-2" points="179.57 36.78 164 52.79 136 24 108 52.79 80 24 52 52.21 24 24 24 214 52 185.79 80 214 108 185.21 136 214 164 185.21 179.57 201.22 179.57 36.78"/><path class="cls-3" d="M192,234a2,2,0,0,1-1.43-.61L164,206.08,137.43,233.4a2.06,2.06,0,0,1-2.87,0L108,206.08,81.43,233.4A2,2,0,0,1,80,234h0a2,2,0,0,1-1.42-.59L52,206.63,25.42,233.41A2,2,0,0,1,22,232V24a2,2,0,0,1,3.42-1.41L52,49.37,78.58,22.59A1.85,1.85,0,0,1,80,22a2,2,0,0,1,1.42.61L108,49.92l26.57-27.32a2.06,2.06,0,0,1,2.87,0L164,49.92l26.57-27.32A2,2,0,0,1,194,24V232a2,2,0,0,1-2,2ZM52,201.79a2,2,0,0,1,1.42.59L80,229.15l26.58-27.33a2.06,2.06,0,0,1,2.87,0L136,229.13l26.57-27.32a2.06,2.06,0,0,1,2.87,0L190,227.08V28.93L165.43,54.19a2.06,2.06,0,0,1-2.87,0L136,26.87,109.43,54.19a2.06,2.06,0,0,1-2.87,0L80,26.86,53.42,53.62a2.06,2.06,0,0,1-2.84,0L26,28.86V227.15l24.58-24.76A2,2,0,0,1,52,201.79Z"/><path class="cls-4" d="M116.76,121H99.24a8,8,0,1,1,0-16h32.52a7,7,0,0,0,0-14H115V83a7,7,0,0,0-14,0v8H99.24a22,22,0,1,0,0,44h17.51a8,8,0,0,1,0,16H84.23a7,7,0,0,0,0,14H101v8a7,7,0,0,0,14,0v-8h1.76a22,22,0,0,0,0-44Z"/><circle class="cls-5" cx="192" cy="215" r="17"/><path class="cls-6" d="M176.29,221.48a17,17,0,0,0,31.43,0Z"/><path class="cls-3" d="M192,234a19,19,0,1,1,19-19A19,19,0,0,1,192,234Zm0-34a15,15,0,1,0,15,15A15,15,0,0,0,192,200Z"/><path class="cls-7" d="M192,138.68h0a33.21,33.21,0,0,1,33.21,33.21V215a0,0,0,0,1,0,0H158.79a0,0,0,0,1,0,0V171.89A33.21,33.21,0,0,1,192,138.68Z"/><path class="cls-8" d="M215.57,206H158.79V171.89A33.21,33.21,0,0,1,192,138.68h0c18.34,0,23.57,14.87,23.57,33.21Z"/><path class="cls-3" d="M225.21,217H158.79a2,2,0,0,1-2-2V171.89a35.21,35.21,0,0,1,70.42,0V215A2,2,0,0,1,225.21,217Zm-64.42-4h62.42V171.89a31.21,31.21,0,0,0-62.42,0Z"/><path class="cls-3" d="M232,217H152a2,2,0,0,1,0-4h80a2,2,0,0,1,0,4Z"/><circle class="cls-9" cx="7" cy="123" r="5"/><circle class="cls-9" cx="128" cy="248" r="4"/><circle class="cls-9" cx="216" cy="121" r="3"/><circle class="cls-9" cx="189" cy="6" r="2"/><circle class="cls-9" cx="240" cy="50" r="1"/><circle class="cls-10" cx="211" cy="87" r="5"/><circle class="cls-10" cx="219" cy="11" r="4"/><circle class="cls-10" cx="16" cy="149" r="3"/><circle class="cls-10" cx="16" cy="64" r="2"/><circle class="cls-10" cx="85" cy="16" r="1"/><circle class="cls-11" cx="45" cy="234" r="5"/><circle class="cls-11" cx="102" cy="19" r="4"/><circle class="cls-11" cx="44" cy="12" r="3"/><circle class="cls-11" cx="225" cy="238" r="2"/><circle class="cls-11" cx="209" cy="230" r="1"/><circle class="cls-12" cx="14" cy="191" r="5"/><circle class="cls-12" cx="250" cy="196" r="4"/><circle class="cls-12" cx="175" cy="243" r="3"/><circle class="cls-12" cx="60" cy="225" r="2"/><circle class="cls-12" cx="157" cy="15" r="1"/></g></svg>