<svg xmlns="http://www.w3.org/2000/svg" viewBox="0 0 256 256"><defs><style>.cls-1{fill:#ffd659;}.cls-2{fill:#2fb1ea;}.cls-3{fill:#6dd0fc;}.cls-4{fill:#a4ecff;}.cls-5{fill:#f88;}.cls-6{fill:#f97171;}.cls-7{fill:#fff;}.cls-8{fill:#ffc444;}.cls-9{fill:#ffe76e;}.cls-10{fill:#d4ffd4;}.cls-11{fill:#ffbdbd;}.cls-12{fill:#bbf1ff;}.cls-13{fill:#fff4c5;}</style></defs><title>business economic finance interprise company networking</title><g id="Layer_2" data-name="Layer 2"><polygon class="cls-1" points="141.94 58.56 141.94 63.75 126.4 66.43 110.86 63.75 110.86 58.56 117.15 50.41 135.65 50.41 141.94 58.56"/><path class="cls-2" d="M126.4,68.43l-.34,0-15.54-2.68a2,2,0,0,1-1.66-2V58.56a2,2,0,0,1,.42-1.22l6.29-8.15a2,2,0,0,1,1.58-.78h18.5a2,2,0,0,1,1.58.78l6.29,8.15a2,2,0,0,1,.42,1.22v5.19a2,2,0,0,1-1.66,2L126.74,68.4Zm-13.54-6.36L126.4,64.4l13.54-2.33V59.25l-5.27-6.83H118.14l-5.27,6.83Z"/><path class="cls-3" d="M151.66,64.22v24.2A15.57,15.57,0,0,1,136.09,104H116.71a15.57,15.57,0,0,1-15.57-15.57V64.22a6.23,6.23,0,0,1,4-5.81l3.23-1.25,18.06,9.26,18.06-9.26,3.23,1.25A6.23,6.23,0,0,1,151.66,64.22Z"/><path class="cls-4" d="M152.13,64.23v18.4a15.86,15.86,0,0,1-15.86,15.86H116.53a15.86,15.86,0,0,1-15.86-15.86V64.23a6.34,6.34,0,0,1,4.05-5.92L108,57l18.39,9.44L144.79,57l3.29,1.27A6.34,6.34,0,0,1,152.13,64.23Z"/><path class="cls-3" d="M115.67,76.85a6.24,6.24,0,0,0,3.66-.33l.44.43A9.49,9.49,0,0,0,133,77l.44-.43a6.31,6.31,0,0,0,2.36.47,6.37,6.37,0,0,0,1.32-.14,6.29,6.29,0,0,0,4.23-3.18l7.91-14.73a6.34,6.34,0,0,0-1.2-.62L144.79,57,126.4,66.48,108,57l-3.29,1.27a6.34,6.34,0,0,0-1.2.62l7.91,14.74A6.29,6.29,0,0,0,115.67,76.85Z"/><path class="cls-2" d="M136.09,106H116.71A17.59,17.59,0,0,1,99.14,88.43V64.22a8.28,8.28,0,0,1,5.25-7.67l3.23-1.25a2,2,0,0,1,1.64.09l17.14,8.8,17.14-8.8a2,2,0,0,1,1.64-.09l3.23,1.25a8.28,8.28,0,0,1,5.25,7.67v24.2A17.59,17.59,0,0,1,136.09,106ZM108.23,59.36l-2.39.93a4.25,4.25,0,0,0-2.7,3.94v24.2A13.59,13.59,0,0,0,116.71,102h19.38a13.59,13.59,0,0,0,13.57-13.57V64.22a4.25,4.25,0,0,0-2.7-3.94l-2.39-.93-17.26,8.85a2,2,0,0,1-1.83,0Z"/><path class="cls-5" d="M132,96.24l-3.08,4.27a3.11,3.11,0,0,1-5.05,0l-3.08-4.27a6.23,6.23,0,0,1-1.11-4.6l2.82-18.19h7.79l2.82,18.19A6.23,6.23,0,0,1,132,96.24Z"/><path class="cls-6" d="M123.18,73l-1,6.62a7.74,7.74,0,0,0,8.5,0l-1-6.62Z"/><path class="cls-2" d="M126.4,103.79h0a5.13,5.13,0,0,1-4.15-2.12l-3.08-4.27a8.18,8.18,0,0,1-1.46-6.08l2.82-18.19a2,2,0,0,1,2-1.69h7.79a2,2,0,0,1,2,1.69l2.82,18.19a8.18,8.18,0,0,1-1.46,6.08l-3.08,4.27A5.13,5.13,0,0,1,126.4,103.79Zm-2.18-28.34-2.55,16.49a4.2,4.2,0,0,0,.75,3.12l3.08,4.27a1.09,1.09,0,0,0,.9.46h0a1.09,1.09,0,0,0,.9-.46l3.08-4.27h0a4.21,4.21,0,0,0,.75-3.12l-2.55-16.49Z"/><path class="cls-7" d="M134.79,69.82l-6.21,6.09a3.11,3.11,0,0,1-4.36,0L118,69.82l8.39-3.39Z"/><path class="cls-2" d="M126.4,78.79a5.1,5.1,0,0,1-3.58-1.45l-6.21-6.09a2,2,0,0,1,.65-3.28l8.39-3.39a2,2,0,0,1,1.5,0L135.54,68a2,2,0,0,1,.65,3.28L130,77.34A5.1,5.1,0,0,1,126.4,78.79Zm-4.81-8.26,4,4a1.12,1.12,0,0,0,1.56,0l4-4-4.81-1.94Z"/><polygon class="cls-7" points="114.77 51.85 108.35 57.17 117.15 73.56 126.4 66.43 114.77 51.85"/><path class="cls-2" d="M117.15,75.56a2,2,0,0,1-.42,0,2,2,0,0,1-1.34-1l-8.8-16.39a2,2,0,0,1,.49-2.49l6.43-5.32a2,2,0,0,1,1.48-.45,2,2,0,0,1,1.36.74L128,65.18a2,2,0,0,1-.34,2.83l-9.26,7.13A2,2,0,0,1,117.15,75.56Zm-6.26-17.9,6.91,12.87,5.78-4.45-9.09-11.4Z"/><polygon class="cls-7" points="138.03 51.85 144.46 57.17 135.66 73.56 126.4 66.43 138.03 51.85"/><path class="cls-2" d="M135.66,75.56a2,2,0,0,1-1.22-.42L125.18,68a2,2,0,0,1-.34-2.83L136.47,50.6a2,2,0,0,1,1.36-.74,2,2,0,0,1,1.48.45l6.43,5.32a2,2,0,0,1,.49,2.49l-8.8,16.39a2,2,0,0,1-1.34,1A2,2,0,0,1,135.66,75.56Zm-6.42-9.47L135,70.54l6.91-12.87-3.6-3Z"/><rect class="cls-8" x="113.95" y="24" width="24.91" height="31.14" rx="12.46" ry="12.46"/><rect class="cls-9" x="114.05" y="23.26" width="24.71" height="26.59" rx="12.35" ry="12.35"/><path class="cls-2" d="M126.4,57.14a14.47,14.47,0,0,1-14.46-14.46V36.46a14.46,14.46,0,1,1,28.91,0v6.23A14.47,14.47,0,0,1,126.4,57.14Zm0-31.14a10.47,10.47,0,0,0-10.46,10.46v6.23a10.46,10.46,0,0,0,20.91,0V36.46A10.47,10.47,0,0,0,126.4,26Z"/><path class="cls-2" d="M128,143.35a2,2,0,0,1-2-2v-26.7a2,2,0,0,1,4,0v26.7A2,2,0,0,1,128,143.35Z"/><path class="cls-2" d="M206.74,143.35a2,2,0,0,1-2-2V130H51.26v11.35a2,2,0,0,1-4,0V128a2,2,0,0,1,2-2H206.74a2,2,0,0,1,2,2v13.35A2,2,0,0,1,206.74,143.35Z"/><polygon class="cls-1" points="222.28 186.56 222.28 191.75 206.74 194.43 191.2 191.75 191.2 186.56 197.49 178.41 215.99 178.41 222.28 186.56"/><path class="cls-2" d="M206.74,196.43l-.34,0-15.54-2.68a2,2,0,0,1-1.66-2v-5.19a2,2,0,0,1,.42-1.22l6.29-8.15a2,2,0,0,1,1.58-.78H216a2,2,0,0,1,1.58.78l6.29,8.15a2,2,0,0,1,.42,1.22v5.19a2,2,0,0,1-1.66,2l-15.54,2.68Zm-13.54-6.36,13.54,2.33,13.54-2.33v-2.82L215,180.41H198.47l-5.27,6.83Z"/><path class="cls-3" d="M232,192.22v24.2A15.57,15.57,0,0,1,216.43,232H197a15.57,15.57,0,0,1-15.57-15.57v-24.2a6.23,6.23,0,0,1,4-5.81l3.23-1.25,18.06,9.26,18.06-9.26,3.23,1.25A6.23,6.23,0,0,1,232,192.22Z"/><path class="cls-4" d="M232.47,192.23v18.4a15.86,15.86,0,0,1-15.86,15.86H196.87A15.86,15.86,0,0,1,181,210.63v-18.4a6.34,6.34,0,0,1,4.05-5.92l3.29-1.27,18.39,9.44L225.13,185l3.29,1.27A6.34,6.34,0,0,1,232.47,192.23Z"/><path class="cls-3" d="M196,204.85a6.24,6.24,0,0,0,3.66-.33l.44.43a9.49,9.49,0,0,0,13.26,0l.44-.43a6.31,6.31,0,0,0,2.36.47,6.37,6.37,0,0,0,1.32-.14,6.29,6.29,0,0,0,4.23-3.18l7.91-14.73a6.34,6.34,0,0,0-1.2-.62L225.13,185l-18.39,9.44L188.35,185l-3.29,1.27a6.34,6.34,0,0,0-1.2.62l7.91,14.74A6.29,6.29,0,0,0,196,204.85Z"/><path class="cls-2" d="M216.43,234H197a17.59,17.59,0,0,1-17.57-17.57v-24.2a8.28,8.28,0,0,1,5.25-7.67L188,183.3a2,2,0,0,1,1.64.09l17.14,8.8,17.14-8.8a2,2,0,0,1,1.64-.09l3.23,1.25a8.28,8.28,0,0,1,5.25,7.67v24.2A17.59,17.59,0,0,1,216.43,234Zm-27.86-46.64-2.39.93a4.25,4.25,0,0,0-2.7,3.94v24.2A13.59,13.59,0,0,0,197,230h19.38A13.59,13.59,0,0,0,230,216.43v-24.2a4.25,4.25,0,0,0-2.7-3.94l-2.39-.93-17.26,8.85a2,2,0,0,1-1.83,0Z"/><path class="cls-7" d="M215.13,197.82l-6.21,6.09a3.11,3.11,0,0,1-4.36,0l-6.21-6.09,8.39-3.39Z"/><path class="cls-2" d="M206.74,206.79a5.1,5.1,0,0,1-3.58-1.45l-6.21-6.09a2,2,0,0,1,.65-3.28l8.39-3.39a2,2,0,0,1,1.5,0l8.39,3.39a2,2,0,0,1,.65,3.28l-6.21,6.09A5.1,5.1,0,0,1,206.74,206.79Zm-4.81-8.26,4,4a1.12,1.12,0,0,0,1.56,0l4-4-4.81-1.94Z"/><polygon class="cls-7" points="195.11 179.85 188.68 185.17 197.48 201.56 206.74 194.43 195.11 179.85"/><path class="cls-2" d="M197.48,203.56a2,2,0,0,1-.42,0,2,2,0,0,1-1.34-1l-8.8-16.39a2,2,0,0,1,.49-2.49l6.43-5.32a2,2,0,0,1,1.48-.45,2,2,0,0,1,1.36.74l11.63,14.58A2,2,0,0,1,208,196l-9.26,7.13A2,2,0,0,1,197.48,203.56Zm-6.26-17.9,6.91,12.87,5.78-4.45-9.09-11.4Z"/><polygon class="cls-7" points="218.37 179.85 224.79 185.17 216 201.56 206.74 194.43 218.37 179.85"/><path class="cls-2" d="M216,203.56a2,2,0,0,1-1.22-.42L205.52,196a2,2,0,0,1-.34-2.83L216.8,178.6a2,2,0,0,1,1.36-.74,2,2,0,0,1,1.48.45l6.43,5.32a2,2,0,0,1,.49,2.49l-8.8,16.39a2,2,0,0,1-1.34,1A2,2,0,0,1,216,203.56Zm-6.42-9.47,5.78,4.45,6.91-12.87-3.6-3Z"/><rect class="cls-8" x="194.28" y="152" width="24.91" height="31.14" rx="12.46" ry="12.46"/><rect class="cls-9" x="194.39" y="151.26" width="24.71" height="26.59" rx="12.35" ry="12.35"/><path class="cls-2" d="M206.74,185.14a14.47,14.47,0,0,1-14.46-14.46v-6.23a14.46,14.46,0,1,1,28.91,0v6.23A14.47,14.47,0,0,1,206.74,185.14Zm0-31.14a10.47,10.47,0,0,0-10.46,10.46v6.23a10.46,10.46,0,0,0,20.91,0v-6.23A10.47,10.47,0,0,0,206.74,154Z"/><path class="cls-2" d="M206.74,234a2,2,0,0,1-2-2V204.8a2,2,0,0,1,4,0V232A2,2,0,0,1,206.74,234Z"/><polygon class="cls-1" points="143.54 186.56 143.54 191.75 128 194.43 112.46 191.75 112.46 186.56 118.75 178.41 137.25 178.41 143.54 186.56"/><path class="cls-2" d="M128,196.43l-.34,0-15.54-2.68a2,2,0,0,1-1.66-2v-5.19a2,2,0,0,1,.42-1.22l6.29-8.15a2,2,0,0,1,1.58-.78h18.5a2,2,0,0,1,1.58.78l6.29,8.15a2,2,0,0,1,.42,1.22v5.19a2,2,0,0,1-1.66,2l-15.54,2.68Zm-13.54-6.36L128,192.4l13.54-2.33v-2.82l-5.27-6.83H119.73l-5.27,6.83Z"/><path class="cls-3" d="M153.26,192.22v24.2A15.57,15.57,0,0,1,137.69,232H118.31a15.57,15.57,0,0,1-15.57-15.57v-24.2a6.23,6.23,0,0,1,4-5.81l3.23-1.25L128,194.43l18.06-9.26,3.23,1.25A6.23,6.23,0,0,1,153.26,192.22Z"/><path class="cls-4" d="M153.73,192.23v18.4a15.86,15.86,0,0,1-15.86,15.86H118.13a15.86,15.86,0,0,1-15.86-15.86v-18.4a6.34,6.34,0,0,1,4.05-5.92l3.29-1.27L128,194.48,146.39,185l3.29,1.27A6.34,6.34,0,0,1,153.73,192.23Z"/><path class="cls-3" d="M117.27,204.85a6.24,6.24,0,0,0,3.66-.33l.44.43a9.49,9.49,0,0,0,13.26,0l.44-.43a6.31,6.31,0,0,0,2.36.47,6.37,6.37,0,0,0,1.32-.14,6.29,6.29,0,0,0,4.23-3.18l7.91-14.73a6.34,6.34,0,0,0-1.2-.62L146.39,185,128,194.48,109.61,185l-3.29,1.27a6.34,6.34,0,0,0-1.2.62L113,201.68A6.29,6.29,0,0,0,117.27,204.85Z"/><path class="cls-2" d="M137.69,234H118.31a17.59,17.59,0,0,1-17.57-17.57v-24.2a8.28,8.28,0,0,1,5.25-7.67l3.23-1.25a2,2,0,0,1,1.64.09l17.14,8.8,17.14-8.8a2,2,0,0,1,1.64-.09l3.23,1.25a8.28,8.28,0,0,1,5.25,7.67v24.2A17.59,17.59,0,0,1,137.69,234Zm-27.86-46.64-2.39.93a4.25,4.25,0,0,0-2.7,3.94v24.2A13.59,13.59,0,0,0,118.31,230h19.38a13.59,13.59,0,0,0,13.57-13.57v-24.2a4.25,4.25,0,0,0-2.7-3.94l-2.39-.93-17.26,8.85a2,2,0,0,1-1.83,0Z"/><path class="cls-7" d="M136.39,197.82l-6.21,6.09a3.11,3.11,0,0,1-4.36,0l-6.21-6.09,8.39-3.39Z"/><path class="cls-2" d="M128,206.79a5.1,5.1,0,0,1-3.58-1.45l-6.21-6.09a2,2,0,0,1,.65-3.28l8.39-3.39a2,2,0,0,1,1.5,0l8.39,3.39a2,2,0,0,1,.65,3.28l-6.21,6.09A5.1,5.1,0,0,1,128,206.79Zm-4.81-8.26,4,4a1.12,1.12,0,0,0,1.56,0l4-4L128,196.59Z"/><polygon class="cls-7" points="116.37 179.85 109.94 185.17 118.74 201.56 128 194.43 116.37 179.85"/><path class="cls-2" d="M118.74,203.56a2,2,0,0,1-.42,0,2,2,0,0,1-1.34-1l-8.8-16.39a2,2,0,0,1,.49-2.49l6.43-5.32a2,2,0,0,1,1.48-.45,2,2,0,0,1,1.36.74l11.63,14.58a2,2,0,0,1-.34,2.83L120,203.14A2,2,0,0,1,118.74,203.56Zm-6.26-17.9,6.91,12.87,5.78-4.45-9.09-11.4Z"/><polygon class="cls-7" points="139.63 179.85 146.06 185.17 137.26 201.56 128 194.43 139.63 179.85"/><path class="cls-2" d="M137.26,203.56a2,2,0,0,1-1.22-.42L126.78,196a2,2,0,0,1-.34-2.83l11.63-14.58a2,2,0,0,1,1.36-.74,2,2,0,0,1,1.48.45l6.43,5.32a2,2,0,0,1,.49,2.49L139,202.51a2,2,0,0,1-1.34,1A2,2,0,0,1,137.26,203.56Zm-6.42-9.47,5.78,4.45,6.91-12.87-3.6-3Z"/><rect class="cls-8" x="115.54" y="152" width="24.91" height="31.14" rx="12.46" ry="12.46"/><rect class="cls-9" x="115.65" y="151.26" width="24.71" height="26.59" rx="12.35" ry="12.35"/><path class="cls-2" d="M128,185.14a14.47,14.47,0,0,1-14.46-14.46v-6.23a14.46,14.46,0,1,1,28.91,0v6.23A14.47,14.47,0,0,1,128,185.14ZM128,154a10.47,10.47,0,0,0-10.46,10.46v6.23a10.46,10.46,0,0,0,20.91,0v-6.23A10.47,10.47,0,0,0,128,154Z"/><path class="cls-2" d="M128,234a2,2,0,0,1-2-2V204.8a2,2,0,0,1,4,0V232A2,2,0,0,1,128,234Z"/><polygon class="cls-1" points="64.8 186.56 64.8 191.75 49.26 194.43 33.72 191.75 33.72 186.56 40.01 178.41 58.51 178.41 64.8 186.56"/><path class="cls-2" d="M49.26,196.43l-.34,0-15.54-2.68a2,2,0,0,1-1.66-2v-5.19a2,2,0,0,1,.42-1.22l6.29-8.15a2,2,0,0,1,1.58-.78h18.5a2,2,0,0,1,1.58.78l6.29,8.15a2,2,0,0,1,.42,1.22v5.19a2,2,0,0,1-1.66,2L49.6,196.4Zm-13.54-6.36,13.54,2.33,13.54-2.33v-2.82l-5.27-6.83H41l-5.27,6.83Z"/><path class="cls-3" d="M74.52,192.22v24.2A15.57,15.57,0,0,1,59,232H39.57A15.57,15.57,0,0,1,24,216.43v-24.2a6.23,6.23,0,0,1,4-5.81l3.23-1.25,18.06,9.26,18.06-9.26,3.23,1.25A6.23,6.23,0,0,1,74.52,192.22Z"/><path class="cls-4" d="M75,192.23v18.4a15.86,15.86,0,0,1-15.86,15.86H39.39a15.86,15.86,0,0,1-15.86-15.86v-18.4a6.34,6.34,0,0,1,4.05-5.92L30.87,185l18.39,9.44L67.65,185l3.29,1.27A6.34,6.34,0,0,1,75,192.23Z"/><path class="cls-3" d="M38.53,204.85a6.24,6.24,0,0,0,3.66-.33l.44.43a9.49,9.49,0,0,0,13.26,0l.44-.43a6.31,6.31,0,0,0,2.36.47,6.37,6.37,0,0,0,1.32-.14,6.29,6.29,0,0,0,4.23-3.18l7.91-14.73a6.34,6.34,0,0,0-1.2-.62L67.65,185l-18.39,9.44L30.87,185l-3.29,1.27a6.34,6.34,0,0,0-1.2.62l7.91,14.74A6.29,6.29,0,0,0,38.53,204.85Z"/><path class="cls-2" d="M59,234H39.57A17.59,17.59,0,0,1,22,216.43v-24.2a8.28,8.28,0,0,1,5.25-7.67l3.23-1.25a2,2,0,0,1,1.64.09l17.14,8.8,17.14-8.8A2,2,0,0,1,68,183.3l3.23,1.25a8.28,8.28,0,0,1,5.25,7.67v24.2A17.59,17.59,0,0,1,59,234ZM31.09,187.36l-2.39.93a4.25,4.25,0,0,0-2.7,3.94v24.2A13.59,13.59,0,0,0,39.57,230H59a13.59,13.59,0,0,0,13.57-13.57v-24.2a4.25,4.25,0,0,0-2.7-3.94l-2.39-.93-17.26,8.85a2,2,0,0,1-1.83,0Z"/><path class="cls-7" d="M57.65,197.82l-6.21,6.09a3.11,3.11,0,0,1-4.36,0l-6.21-6.09,8.39-3.39Z"/><path class="cls-2" d="M49.26,206.79a5.1,5.1,0,0,1-3.58-1.45l-6.21-6.09a2,2,0,0,1,.65-3.28l8.39-3.39a2,2,0,0,1,1.5,0L58.4,196a2,2,0,0,1,.65,3.28l-6.21,6.09A5.1,5.1,0,0,1,49.26,206.79Zm-4.81-8.26,4,4a1.12,1.12,0,0,0,1.56,0l4-4-4.81-1.94Z"/><polygon class="cls-7" points="37.63 179.85 31.2 185.17 40.01 201.56 49.26 194.43 37.63 179.85"/><path class="cls-2" d="M40,203.56a2,2,0,0,1-.42,0,2,2,0,0,1-1.34-1l-8.8-16.39a2,2,0,0,1,.49-2.49l6.43-5.32a2,2,0,0,1,1.48-.45,2,2,0,0,1,1.36.74l11.63,14.58a2,2,0,0,1-.34,2.83l-9.26,7.13A2,2,0,0,1,40,203.56Zm-6.26-17.9,6.91,12.87,5.78-4.45-9.09-11.4Z"/><polygon class="cls-7" points="60.89 179.85 67.32 185.17 58.52 201.56 49.26 194.43 60.89 179.85"/><path class="cls-2" d="M58.52,203.56a2,2,0,0,1-1.22-.42L48,196a2,2,0,0,1-.34-2.83L59.33,178.6a2,2,0,0,1,1.36-.74,2,2,0,0,1,1.48.45l6.43,5.32a2,2,0,0,1,.49,2.49l-8.8,16.39a2,2,0,0,1-1.34,1A2,2,0,0,1,58.52,203.56Zm-6.42-9.47,5.78,4.45,6.91-12.87-3.6-3Z"/><rect class="cls-8" x="36.8" y="152" width="24.91" height="31.14" rx="12.46" ry="12.46"/><rect class="cls-9" x="36.91" y="151.26" width="24.71" height="26.59" rx="12.35" ry="12.35"/><path class="cls-2" d="M49.26,185.14A14.47,14.47,0,0,1,34.8,170.69v-6.23a14.46,14.46,0,1,1,28.91,0v6.23A14.47,14.47,0,0,1,49.26,185.14Zm0-31.14A10.47,10.47,0,0,0,38.8,164.46v6.23a10.46,10.46,0,0,0,20.91,0v-6.23A10.47,10.47,0,0,0,49.26,154Z"/><path class="cls-2" d="M49.26,234a2,2,0,0,1-2-2V204.8a2,2,0,0,1,4,0V232A2,2,0,0,1,49.26,234Z"/><circle class="cls-10" cx="49" cy="30" r="5"/><circle class="cls-10" cx="197" cy="47" r="4"/><circle class="cls-10" cx="26.25" cy="66.75" r="3"/><circle class="cls-10" cx="53" cy="115" r="2"/><circle class="cls-10" cx="53" cy="60" r="1"/><circle class="cls-11" cx="166" cy="107" r="5"/><circle class="cls-11" cx="83" cy="161" r="4"/><circle class="cls-11" cx="83.25" cy="84.75" r="3"/><circle class="cls-11" cx="83.25" cy="48.75" r="2"/><circle class="cls-11" cx="174" cy="47" r="1"/><circle class="cls-12" cx="228.25" cy="138.75" r="5"/><circle class="cls-12" cx="154.25" cy="247.75" r="4"/><circle class="cls-12" cx="26.25" cy="104.75" r="3"/><circle class="cls-12" cx="207.25" cy="74.75" r="2"/><circle class="cls-12" cx="226.25" cy="205.75" r="1"/><circle class="cls-13" cx="194" cy="113" r="5"/><circle class="cls-13" cx="117" cy="8" r="4"/><circle class="cls-13" cx="161" cy="148" r="3"/><circle class="cls-13" cx="173" cy="75" r="2"/><circle class="cls-13" cx="23.75" cy="155.25" r="1"/></g></svg>