<svg xmlns="http://www.w3.org/2000/svg" viewBox="0 0 256 256"><defs><style>.cls-1{fill:#cbecf9;}.cls-2{fill:#fff;}.cls-3{fill:#2fb1ea;}.cls-4{fill:#6dd0fc;}.cls-5{fill:#a4ecff;}.cls-6{fill:#ffc444;}.cls-7{fill:#ffe76e;}.cls-8{fill:#f88;}.cls-9{fill:#7adafc;}.cls-10{fill:#52e355;}.cls-11{fill:#90fc95;}.cls-12{fill:#d4ffd4;}.cls-13{fill:#ffbdbd;}.cls-14{fill:#bbf1ff;}.cls-15{fill:#fff4c5;}</style></defs><title>business economic finance interprise company payment method</title><g id="Layer_2" data-name="Layer 2"><path class="cls-1" d="M31.08,100.63h81.65a12.64,12.64,0,0,1,12.64,12.64v63.18a12.64,12.64,0,0,1-12.64,12.64H31.08a0,0,0,0,1,0,0V100.63A0,0,0,0,1,31.08,100.63Z" transform="translate(223.08 66.63) rotate(90)"/><path class="cls-2" d="M31.81,99.9h73.94a11.52,11.52,0,0,1,11.52,11.52v58A11.52,11.52,0,0,1,105.75,181H31.81a0,0,0,0,1,0,0V99.9A0,0,0,0,1,31.81,99.9Z" transform="translate(214.98 65.9) rotate(90)"/><path class="cls-1" d="M34,97.71v17.11a19.54,19.54,0,0,0,12.64,4.63h63.18a19.54,19.54,0,0,0,12.64-4.63V97.71Z"/><path class="cls-3" d="M109.82,194H46.64A14.65,14.65,0,0,1,32,179.36V97.71a2,2,0,0,1,2-2h88.46a2,2,0,0,1,2,2v81.65A14.65,14.65,0,0,1,109.82,194ZM36,99.71v79.65A10.65,10.65,0,0,0,46.64,190h63.18a10.65,10.65,0,0,0,10.64-10.64V99.71Z"/><rect class="cls-4" x="34" y="24" width="88.46" height="88.46" rx="12.64" ry="12.64"/><rect class="cls-5" x="34" y="24" width="80.33" height="81.72" rx="12.79" ry="12.79"/><path class="cls-3" d="M109.82,114.46H46.64A14.65,14.65,0,0,1,32,99.82V36.64A14.65,14.65,0,0,1,46.64,22h63.18a14.65,14.65,0,0,1,14.64,14.64V99.82A14.65,14.65,0,0,1,109.82,114.46ZM46.64,26A10.65,10.65,0,0,0,36,36.64V99.82a10.65,10.65,0,0,0,10.64,10.64h63.18a10.65,10.65,0,0,0,10.64-10.64V36.64A10.65,10.65,0,0,0,109.82,26Z"/><rect class="cls-4" x="43.11" y="33.11" width="64.6" height="64.6" transform="translate(140.83 -10) rotate(90)"/><rect class="cls-6" x="48.74" y="38.74" width="58.97" height="58.97" transform="translate(146.46 -10) rotate(90)"/><rect class="cls-7" x="56.09" y="46.09" width="52.08" height="51.17" transform="translate(153.8 -10.46) rotate(90)"/><path class="cls-3" d="M107.71,99.71h-59a2,2,0,0,1-2-2v-59a2,2,0,0,1,2-2h59a2,2,0,0,1,2,2v59A2,2,0,0,1,107.71,99.71Zm-57-4h55v-55h-55Z"/><rect class="cls-8" x="46.73" y="123.55" width="13.26" height="13.26" rx="3.16" ry="3.16"/><rect class="cls-8" x="71.6" y="123.55" width="13.26" height="13.26" rx="3.16" ry="3.16"/><rect class="cls-8" x="96.47" y="123.55" width="13.26" height="13.26" rx="3.16" ry="3.16"/><rect class="cls-8" x="46.73" y="145.07" width="13.26" height="13.26" rx="3.16" ry="3.16"/><rect class="cls-8" x="71.6" y="145.07" width="13.26" height="13.26" rx="3.16" ry="3.16"/><rect class="cls-8" x="96.47" y="145.07" width="13.26" height="13.26" rx="3.16" ry="3.16"/><rect class="cls-8" x="46.73" y="167.29" width="13.26" height="13.26" rx="3.16" ry="3.16"/><rect class="cls-8" x="71.6" y="167.29" width="13.26" height="13.26" rx="3.16" ry="3.16"/><rect class="cls-9" x="96.47" y="167.29" width="13.26" height="13.26" rx="3.16" ry="3.16"/><rect class="cls-4" x="122.46" y="104" width="33.54" height="48"/><rect class="cls-5" x="122.46" y="104" width="28.7" height="48"/><rect class="cls-4" x="127.53" y="104" width="18.58" height="48"/><path class="cls-3" d="M156,154H122.46a2,2,0,0,1-2-2V104a2,2,0,0,1,2-2H156a2,2,0,0,1,2,2v48A2,2,0,0,1,156,154Zm-31.54-4H154V106H124.46Z"/><rect class="cls-10" x="132.34" y="104" width="13.77" height="48"/><rect class="cls-11" x="137.7" y="104" width="8.42" height="48"/><path class="cls-3" d="M146.11,154H132.34a2,2,0,0,1-2-2V104a2,2,0,0,1,2-2h13.77a2,2,0,0,1,2,2v48A2,2,0,0,1,146.11,154Zm-11.77-4h9.77V106h-9.77Z"/><rect class="cls-1" x="96.97" y="155.18" width="125.03" height="76.82"/><rect class="cls-2" x="96.97" y="155.18" width="115.81" height="69.06"/><path class="cls-3" d="M222,234H97a2,2,0,0,1-2-2V155.18a2,2,0,0,1,2-2H222a2,2,0,0,1,2,2V232A2,2,0,0,1,222,234ZM99,230H220V157.18H99Z"/><circle class="cls-8" cx="179.43" cy="205" r="9.31"/><path class="cls-3" d="M179.43,216.31A11.31,11.31,0,1,1,190.74,205,11.32,11.32,0,0,1,179.43,216.31Zm0-18.62a7.31,7.31,0,1,0,7.31,7.31A7.32,7.32,0,0,0,179.43,197.69Z"/><circle class="cls-8" cx="187.77" cy="205" r="9.31"/><path class="cls-3" d="M187.77,216.31A11.31,11.31,0,1,1,199.08,205,11.32,11.32,0,0,1,187.77,216.31Zm0-18.62a7.31,7.31,0,1,0,7.31,7.31A7.32,7.32,0,0,0,187.77,197.69Z"/><rect class="cls-4" x="96.97" y="166.35" width="125.03" height="14.82"/><rect class="cls-5" x="96.97" y="166.35" width="115.81" height="14.82"/><path class="cls-3" d="M222,183.17H97a2,2,0,0,1-2-2V166.35a2,2,0,0,1,2-2H222a2,2,0,0,1,2,2v14.82A2,2,0,0,1,222,183.17Zm-123-4H220V168.35H99Z"/><circle class="cls-12" cx="69.25" cy="230" r="5"/><circle class="cls-12" cx="186.25" cy="89" r="4"/><circle class="cls-12" cx="26.25" cy="67" r="3"/><circle class="cls-12" cx="37.25" cy="198" r="2"/><circle class="cls-12" cx="26.75" cy="224.5" r="1"/><circle class="cls-13" cx="163.75" cy="246.5" r="5"/><circle class="cls-13" cx="78.75" cy="205.5" r="4"/><circle class="cls-13" cx="151.25" cy="60" r="3"/><circle class="cls-13" cx="49.75" cy="15.5" r="2"/><circle class="cls-13" cx="145.75" cy="16.5" r="1"/><circle class="cls-14" cx="228.25" cy="139" r="5"/><circle class="cls-14" cx="185.25" cy="52" r="4"/><circle class="cls-14" cx="26.25" cy="105" r="3"/><circle class="cls-14" cx="207.25" cy="75" r="2"/><circle class="cls-14" cx="226.25" cy="206" r="1"/><circle class="cls-15" cx="203.75" cy="21.5" r="5"/><circle class="cls-15" cx="107.75" cy="8.5" r="4"/><circle class="cls-15" cx="193.75" cy="143.5" r="3"/><circle class="cls-15" cx="171.25" cy="106" r="2"/><circle class="cls-15" cx="23.75" cy="155.5" r="1"/></g></svg>