<svg xmlns="http://www.w3.org/2000/svg" viewBox="0 0 256 256"><defs><style>.cls-1{fill:#cbecf9;}.cls-2{fill:#fff;}.cls-3{fill:#2fb1ea;}.cls-4{fill:#6dd0fc;}.cls-5{fill:#a4ecff;}.cls-6{fill:#ffc444;}.cls-7{fill:#ffe76e;}.cls-8{fill:#7adafc;}.cls-9{fill:#52e355;}.cls-10{fill:#90fc95;}.cls-11{fill:#d4ffd4;}.cls-12{fill:#ffbdbd;}.cls-13{fill:#bbf1ff;}.cls-14{fill:#fff4c5;}</style></defs><title>business economic finance interprise point of services</title><g id="Layer_2" data-name="Layer 2"><path class="cls-1" d="M12,136h96a12,12,0,0,1,12,12v60a12,12,0,0,1-12,12H12a0,0,0,0,1,0,0V136A0,0,0,0,1,12,136Z" transform="translate(243.98 111.98) rotate(90)"/><path class="cls-2" d="M12,136h88a12,12,0,0,1,12,12v52a12,12,0,0,1-12,12H12a0,0,0,0,1,0,0V136A0,0,0,0,1,12,136Z" transform="translate(235.98 111.98) rotate(90)"/><path class="cls-1" d="M100,124H24v18a19.87,19.87,0,0,0,12,4H96a20.17,20.17,0,0,0,9.05-2.15Z"/><path class="cls-3" d="M96,234H36a14,14,0,0,1-14-14V124a2,2,0,0,1,2-2h84a2,2,0,0,1,2,2v96A14,14,0,0,1,96,234ZM26,126v94a10,10,0,0,0,10,10H96a10,10,0,0,0,10-10V126Z"/><rect class="cls-4" x="24" y="53.96" width="84" height="84" rx="12" ry="12"/><rect class="cls-5" x="24" y="53.96" width="76" height="76" rx="12" ry="12"/><path class="cls-3" d="M96,140H36a14,14,0,0,1-14-14V66A14,14,0,0,1,36,52H96a14,14,0,0,1,14,14v60A14,14,0,0,1,96,140ZM36,56A10,10,0,0,0,26,66v60a10,10,0,0,0,10,10H96a10,10,0,0,0,10-10V66A10,10,0,0,0,96,56Z"/><rect class="cls-4" x="33.12" y="63.07" width="60.88" height="60.88" transform="translate(157.07 29.96) rotate(90)"/><rect class="cls-6" x="38" y="67.96" width="56" height="56" transform="translate(161.96 29.96) rotate(90)"/><rect class="cls-7" x="43.4" y="73.35" width="50.6" height="50.6" transform="translate(167.35 29.96) rotate(90)"/><path class="cls-3" d="M94,126H38a2,2,0,0,1-2-2V68a2,2,0,0,1,2-2H94a2,2,0,0,1,2,2v56A2,2,0,0,1,94,126Zm-54-4H92V70H40Z"/><polygon class="cls-1" points="38 53.96 38 24 47.33 32.2 56.67 24 66 32.2 75.33 24 84.67 32.2 94 24 94 53.96 38 53.96"/><polygon class="cls-2" points="94 46.46 94 24 84.67 32.2 75.33 24 66 32.2 56.67 24 47.33 32.2 38 24 38 46.46 94 46.46"/><path class="cls-3" d="M94,56H38a2,2,0,0,1-2-2V24a2,2,0,0,1,3.32-1.5l8,7,8-7a2,2,0,0,1,2.64,0l8,7,8-7a2,2,0,0,1,2.64,0l8,7,8-7A2,2,0,0,1,96,24V54A2,2,0,0,1,94,56ZM40,52H92V28.42L86,33.7a2,2,0,0,1-2.64,0l-8-7-8,7a2,2,0,0,1-2.64,0l-8-7-8,7a2,2,0,0,1-2.64,0l-6-5.28Z"/><path class="cls-3" d="M69.54,112.08H56.4a4,4,0,0,1,0-8H69.54a2.06,2.06,0,1,0,0-4.12H62.46a10.06,10.06,0,0,1,0-20.13H75.6a4,4,0,0,1,0,8H62.46a2.06,2.06,0,0,0,0,4.13h7.07a10.06,10.06,0,1,1,0,20.12Z"/><path class="cls-3" d="M66,87.83a4,4,0,0,1-4-4V77.77a4,4,0,1,1,8,0v6.06A4,4,0,0,1,66,87.83Z"/><path class="cls-3" d="M66,118.14a4,4,0,0,1-4-4v-6.06a4,4,0,1,1,8,0v6.06A4,4,0,0,1,66,118.14Z"/><rect class="cls-8" x="36.09" y="147.37" width="12.59" height="12.59" rx="3" ry="3"/><rect class="cls-8" x="59.7" y="147.37" width="12.59" height="12.59" rx="3" ry="3"/><rect class="cls-8" x="83.32" y="147.37" width="12.59" height="12.59" rx="3" ry="3"/><rect class="cls-8" x="36.09" y="167.8" width="12.59" height="12.59" rx="3" ry="3"/><rect class="cls-8" x="59.7" y="167.8" width="12.59" height="12.59" rx="3" ry="3"/><rect class="cls-8" x="83.32" y="167.8" width="12.59" height="12.59" rx="3" ry="3"/><rect class="cls-8" x="36.09" y="188.9" width="12.59" height="12.59" rx="3" ry="3"/><rect class="cls-8" x="59.7" y="188.9" width="12.59" height="12.59" rx="3" ry="3"/><rect class="cls-8" x="83.32" y="188.9" width="12.59" height="12.59" rx="3" ry="3"/><rect class="cls-8" x="36.09" y="209.99" width="12.59" height="12.59" rx="3" ry="3"/><rect class="cls-8" x="59.7" y="209.99" width="12.59" height="12.59" rx="3" ry="3"/><rect class="cls-8" x="83.32" y="209.99" width="12.59" height="12.59" rx="3" ry="3"/><path class="cls-9" d="M183.71,96.86C153.81,85.72,123.9,109.09,94,98V48.19c29.9,11.14,59.81-12.23,89.71-1.1Q183.71,72,183.71,96.86Z"/><path class="cls-10" d="M177.66,45.3C149.77,39,121.89,58.58,94,48.19V92.48c27.89,10.39,55.77-9.22,83.66-2.89Z"/><path class="cls-3" d="M112.15,103A53.25,53.25,0,0,1,93.3,99.83,2,2,0,0,1,92,98V48.19a2,2,0,0,1,2.7-1.87c14.42,5.37,28.67,2.45,43.76-.63s30.47-6.23,46-.46a2,2,0,0,1,1.3,1.87V96.86a2,2,0,0,1-2.7,1.87c-14.42-5.37-28.67-2.45-43.76.63C130.37,101.18,121.29,103,112.15,103ZM96,96.54c14,4.73,27.82,1.9,42.46-1.1,14.11-2.88,28.67-5.86,43.26-1.38V48.51c-14-4.73-27.82-1.9-42.46,1.1C125.15,52.49,110.59,55.46,96,51Z"/><path class="cls-7" d="M174.6,62.92V76.24c-5-.81-9.11,3.41-9.11,8.42-17.76,0-35.51,7.26-53.27,7.28,0-5.06-4.08-9-9.11-9.81V68.81c5,.81,9.11-3.41,9.11-8.42,17.76,0,35.51-7.26,53.27-7.28C165.49,58.17,169.57,62.11,174.6,62.92Z"/><path class="cls-3" d="M112.22,93.94a2,2,0,0,1-2-2c0-3.84-3.12-7.14-7.43-7.83a2,2,0,0,1-1.68-2V68.81a2,2,0,0,1,2.32-2,5.46,5.46,0,0,0,4.48-1.26,6.86,6.86,0,0,0,2.31-5.18,2,2,0,0,1,2-2c8.68,0,17.6-1.84,26.24-3.6,8.83-1.81,18-3.67,27-3.68h0a2,2,0,0,1,2,2c0,3.84,3.13,7.14,7.43,7.83a2,2,0,0,1,1.68,2V76.24a2,2,0,0,1-2.32,2,5.48,5.48,0,0,0-4.48,1.26,6.86,6.86,0,0,0-2.31,5.18,2,2,0,0,1-2,2c-8.68,0-17.6,1.83-26.24,3.6-8.83,1.81-18,3.67-27,3.68Zm-7.11-13.41A12.34,12.34,0,0,1,114,89.91c8.1-.24,16.39-1.93,24.42-3.57,8.24-1.68,16.73-3.42,25.21-3.66a10.63,10.63,0,0,1,3.55-6.26,9.41,9.41,0,0,1,5.39-2.26V64.52a12.34,12.34,0,0,1-8.92-9.38c-8.1.24-16.39,1.93-24.42,3.57C131,60.4,122.53,62.14,114,62.37a10.63,10.63,0,0,1-3.55,6.26,9.41,9.41,0,0,1-5.39,2.26Z"/><path class="cls-2" d="M148.11,70.71a11.88,11.88,0,0,1-9.26,11.07c-5.11,1.06-9.26-2.32-9.26-7.44a11.88,11.88,0,0,1,9.26-11.07C144,62.2,148.11,65.59,148.11,70.71Z"/><path class="cls-3" d="M137,84A9.3,9.3,0,0,1,131,81.92a9.53,9.53,0,0,1-3.43-7.57,13.84,13.84,0,0,1,10.85-13,9.67,9.67,0,0,1,8.23,1.82,9.53,9.53,0,0,1,3.43,7.57h0a13.84,13.84,0,0,1-10.85,13A11.21,11.21,0,0,1,137,84Zm3.73-18.91a7.15,7.15,0,0,0-1.45.15,9.86,9.86,0,0,0-7.66,9.12,5.6,5.6,0,0,0,2,4.47,5.75,5.75,0,0,0,4.89,1,9.86,9.86,0,0,0,7.66-9.12h0a5.6,5.6,0,0,0-2-4.47A5.38,5.38,0,0,0,140.71,65.07Z"/><path class="cls-9" d="M232,156.91c-29.9-11.14-59.81,12.23-89.71,1.1V108.24c29.9,11.14,59.81-12.23,89.71-1.1Q232,132,232,156.91Z"/><path class="cls-10" d="M225.94,105.35c-27.89-6.33-55.77,13.28-83.66,2.89v44.29c27.89,10.39,55.77-9.22,83.66-2.89Z"/><path class="cls-3" d="M160.43,163.09a53.25,53.25,0,0,1-18.84-3.21,2,2,0,0,1-1.3-1.87V108.24a2,2,0,0,1,2.7-1.87c14.42,5.37,28.67,2.45,43.76-.63s30.47-6.23,46-.46a2,2,0,0,1,1.3,1.87v49.76a2,2,0,0,1-2.7,1.87c-14.42-5.37-28.67-2.45-43.76.63C178.65,161.23,169.58,163.09,160.43,163.09Zm-16.15-6.5c14,4.73,27.82,1.9,42.46-1.1,14.11-2.88,28.67-5.86,43.26-1.38V108.55c-14-4.73-27.82-1.9-42.46,1.1-14.11,2.88-28.67,5.86-43.26,1.38Z"/><path class="cls-7" d="M222.89,123v13.32c-5-.81-9.11,3.41-9.11,8.42-17.76,0-35.51,7.26-53.27,7.28,0-5.06-4.08-9-9.11-9.81V128.86c5,.81,9.11-3.41,9.11-8.42,17.76,0,35.51-7.26,53.27-7.28C213.78,118.21,217.86,122.15,222.89,123Z"/><path class="cls-3" d="M160.51,154a2,2,0,0,1-2-2c0-3.84-3.12-7.14-7.43-7.83a2,2,0,0,1-1.68-2V128.86a2,2,0,0,1,2.32-2,5.46,5.46,0,0,0,4.48-1.26,6.86,6.86,0,0,0,2.31-5.18,2,2,0,0,1,2-2c8.68,0,17.6-1.84,26.24-3.6,8.83-1.81,18-3.67,27-3.68h0a2,2,0,0,1,2,2c0,3.84,3.13,7.14,7.43,7.83a2,2,0,0,1,1.68,2v13.32a2,2,0,0,1-2.32,2,5.48,5.48,0,0,0-4.48,1.26,6.86,6.86,0,0,0-2.31,5.18,2,2,0,0,1-2,2c-8.68,0-17.6,1.83-26.24,3.6-8.83,1.81-18,3.67-27,3.68Zm-7.11-13.41a12.34,12.34,0,0,1,8.92,9.38c8.1-.24,16.39-1.93,24.42-3.57C195,144.7,203.47,143,212,142.73a10.63,10.63,0,0,1,3.55-6.26,9.41,9.41,0,0,1,5.39-2.26v-9.65a12.34,12.34,0,0,1-8.92-9.38c-8.1.24-16.39,1.93-24.42,3.57-8.24,1.68-16.73,3.42-25.21,3.66a10.63,10.63,0,0,1-3.55,6.26,9.41,9.41,0,0,1-5.39,2.26Z"/><path class="cls-2" d="M196.4,130.75a11.88,11.88,0,0,1-9.26,11.07c-5.11,1.06-9.26-2.32-9.26-7.44a11.88,11.88,0,0,1,9.26-11.07C192.25,122.25,196.4,125.63,196.4,130.75Z"/><path class="cls-3" d="M185.27,144a9.3,9.3,0,0,1-5.95-2.06,9.53,9.53,0,0,1-3.43-7.57,13.84,13.84,0,0,1,10.85-13,9.67,9.67,0,0,1,8.23,1.82,9.53,9.53,0,0,1,3.43,7.57h0a13.84,13.84,0,0,1-10.85,13A11.21,11.21,0,0,1,185.27,144ZM189,125.12a7.15,7.15,0,0,0-1.45.15,9.86,9.86,0,0,0-7.66,9.12,5.6,5.6,0,0,0,2,4.47,5.75,5.75,0,0,0,4.89,1,9.86,9.86,0,0,0,7.66-9.12h0a5.6,5.6,0,0,0-2-4.47A5.38,5.38,0,0,0,189,125.12Z"/><circle class="cls-11" cx="133.5" cy="174" r="5"/><circle class="cls-11" cx="195.5" cy="172" r="4"/><circle class="cls-11" cx="17.5" cy="217" r="3"/><circle class="cls-11" cx="168" cy="20.5" r="2"/><circle class="cls-11" cx="210" cy="198.5" r="1"/><circle class="cls-12" cx="245" cy="126.5" r="5"/><circle class="cls-12" cx="132" cy="6.5" r="4"/><circle class="cls-12" cx="156" cy="234.5" r="3"/><circle class="cls-12" cx="11.5" cy="86" r="2"/><circle class="cls-12" cx="187" cy="232.5" r="1"/><circle class="cls-13" cx="126" cy="248.5" r="5"/><circle class="cls-13" cx="205.5" cy="67" r="4"/><circle class="cls-13" cx="28.5" cy="21" r="3"/><circle class="cls-13" cx="16.5" cy="172" r="2"/><circle class="cls-13" cx="173" cy="208.5" r="1"/><circle class="cls-14" cx="11" cy="138.5" r="5"/><circle class="cls-14" cx="127.5" cy="34" r="4"/><circle class="cls-14" cx="185.5" cy="189" r="3"/><circle class="cls-14" cx="238" cy="96.5" r="2"/><circle class="cls-14" cx="211.5" cy="32" r="1"/></g></svg>