<svg xmlns="http://www.w3.org/2000/svg" viewBox="0 0 256 256"><defs><style>.cls-1{fill:#cbecf9;}.cls-2{fill:#fff;}.cls-3{fill:#2fb1ea;}.cls-4{fill:#6dd0fc;}.cls-5{fill:#a4ecff;}.cls-6{fill:#ffc444;}.cls-7{fill:#ffe76e;}.cls-8{fill:#d4ffd4;}.cls-9{fill:#ffbdbd;}.cls-10{fill:#bbf1ff;}.cls-11{fill:#fff4c5;}</style></defs><title>business economic finance interprise company security shield</title><g id="Layer_2" data-name="Layer 2"><rect class="cls-1" x="24" y="44" width="168" height="121.3"/><rect class="cls-2" x="24" y="44" width="156.03" height="111.21"/><path class="cls-3" d="M192,167.3H24a2,2,0,0,1-2-2V44a2,2,0,0,1,2-2H192a2,2,0,0,1,2,2V165.3A2,2,0,0,1,192,167.3Zm-166-4H190V46H26Z"/><rect class="cls-4" x="24" y="66.59" width="168" height="22.29"/><rect class="cls-5" x="24" y="66.59" width="156.03" height="22.29"/><path class="cls-3" d="M192,90.88H24a2,2,0,0,1-2-2V66.59a2,2,0,0,1,2-2H192a2,2,0,0,1,2,2V88.88A2,2,0,0,1,192,90.88Zm-166-4H190V68.59H26Z"/><path class="cls-6" d="M192,123.25c-6.87,9.89-30,21-40,21,6.51,42,27.16,60.37,40,67.79,12.84-7.42,33.49-25.74,40-67.79C222,144.21,198.87,133.13,192,123.25Z"/><path class="cls-7" d="M192,126.46c-8,8-30,17.75-40,17.75,6.51,42,27.16,50.62,40,58,8.84-6,23.59-18.66,33.83-54.26C215.83,148,194.88,135,192,126.46Z"/><path class="cls-3" d="M192,214a2,2,0,0,1-1-.27c-12.41-7.17-34.24-25.69-41-69.21a2,2,0,0,1,2-2.31c9.41,0,32-11,38.36-20.11a2,2,0,0,1,3.29,0c6.34,9.13,28.95,20.11,38.36,20.11a2,2,0,0,1,2,2.31c-6.74,43.52-28.56,62-41,69.21A2,2,0,0,1,192,214Zm-37.67-67.94c6.65,39.19,26,56.53,37.67,63.61,11.72-7.09,31-24.42,37.67-63.61C219,144.77,200,135.49,192,126.46,184,135.49,165,144.77,154.33,146.06Z"/><path class="cls-3" d="M195.65,164.12h-7.3a2.75,2.75,0,0,1,0-5.51H201.9a3.5,3.5,0,0,0,0-7h-6.4v-2.75a3.5,3.5,0,0,0-7,0v2.75h-.15a9.75,9.75,0,0,0,0,19.51h7.3a2.75,2.75,0,0,1,0,5.51H182.1a3.5,3.5,0,1,0,0,7h6.4v2.75a3.5,3.5,0,0,0,7,0v-2.75h.15a9.75,9.75,0,0,0,0-19.51Z"/><circle class="cls-8" cx="209.5" cy="114" r="5"/><circle class="cls-8" cx="124.5" cy="199" r="4"/><circle class="cls-8" cx="66.5" cy="36" r="3"/><circle class="cls-8" cx="177.5" cy="37" r="2"/><circle class="cls-8" cx="224.5" cy="27" r="1"/><circle class="cls-9" cx="246.5" cy="164" r="5"/><circle class="cls-9" cx="205.5" cy="79" r="4"/><circle class="cls-9" cx="60.5" cy="183" r="3"/><circle class="cls-9" cx="15.5" cy="50" r="2"/><circle class="cls-9" cx="16.5" cy="146" r="1"/><circle class="cls-10" cx="188.5" cy="228" r="5"/><circle class="cls-10" cx="107.5" cy="181" r="4"/><circle class="cls-10" cx="102.5" cy="33" r="3"/><circle class="cls-10" cx="97.5" cy="203" r="2"/><circle class="cls-10" cx="210.5" cy="225" r="1"/><circle class="cls-11" cx="21.5" cy="204" r="5"/><circle class="cls-11" cx="8.5" cy="108" r="4"/><circle class="cls-11" cx="143.5" cy="194" r="3"/><circle class="cls-11" cx="88.5" cy="181" r="2"/><circle class="cls-11" cx="155.5" cy="24" r="1"/></g></svg>