<svg xmlns="http://www.w3.org/2000/svg" viewBox="0 0 256 256"><defs><style>.cls-1{fill:#f88;}.cls-2{fill:#f97171;}.cls-3{fill:#90fc95;}.cls-4{fill:#52e355;}.cls-5{fill:#cbecf9;}.cls-6{fill:#fff;}.cls-7{fill:#2fb1ea;}.cls-8{fill:#e5f5fc;}.cls-9{fill:#d4ffd4;}.cls-10{fill:#ffbdbd;}.cls-11{fill:#bbf1ff;}.cls-12{fill:#fff4c5;}</style></defs><title>business economic finance interprise company transfer</title><g id="Layer_2" data-name="Layer 2"><path class="cls-1" d="M191,52H124.74V48.72a5,5,0,0,0-7.5-4.33l-16.09,9.29a5,5,0,0,0,0,8.66l16.09,9.29a5,5,0,0,0,7.5-4.33V64H191a2,2,0,0,1,2,2v86h12V66A14,14,0,0,0,191,52Z"/><rect class="cls-2" x="192.99" y="141.59" width="12" height="10"/><path class="cls-3" d="M154.85,193.84l-16.09-9.29a5,5,0,0,0-7.5,4.33v3.29H66.83a2,2,0,0,1-2-2V104h-12v86.16a14,14,0,0,0,14,14h64.44v3.29a5,5,0,0,0,7.5,4.33l16.09-9.29A5,5,0,0,0,154.85,193.84Z"/><rect class="cls-4" x="52.83" y="104.01" width="12" height="10"/><path class="cls-5" d="M76.24,43.37H88.65V97a7,7,0,0,1-7,7H31a7,7,0,0,1-7-7V31a7,7,0,0,1,7-7H69.24V36.37A7,7,0,0,0,76.24,43.37Z"/><path class="cls-6" d="M76.24,43.37H88.65V90a7,7,0,0,1-7,7H31a7,7,0,0,1-7-7V31a7,7,0,0,1,7-7H69.24V36.37A7,7,0,0,0,76.24,43.37Z"/><path class="cls-5" d="M88.65,49.17H76.24a7,7,0,0,1-7-7V29.75L88.31,42.11Z"/><path class="cls-7" d="M81.65,106H31a9,9,0,0,1-9-9V31a9,9,0,0,1,9-9H69.24a2,2,0,0,1,2,2V36.37a5,5,0,0,0,5,5H88.65a2,2,0,0,1,2,2V97A9,9,0,0,1,81.65,106ZM31,26a5,5,0,0,0-5,5V97a5,5,0,0,0,5,5H81.65a5,5,0,0,0,5-5V45.37H76.24a9,9,0,0,1-9-9V26Z"/><path class="cls-8" d="M88.65,43.37H76.24a7,7,0,0,1-7-7V24Z"/><path class="cls-7" d="M88.65,45.37H76.24a9,9,0,0,1-9-9V24a2,2,0,0,1,3.41-1.41L90.06,42a2,2,0,0,1-1.41,3.41ZM71.24,28.79v7.58a5,5,0,0,0,5,5h7.58Z"/><path class="cls-5" d="M219.6,171.4H232V225a7,7,0,0,1-7,7H174.35a7,7,0,0,1-7-7V159a7,7,0,0,1,7-7H212.6V164.4A7,7,0,0,0,219.6,171.4Z"/><path class="cls-6" d="M219.6,171.4H232V218a7,7,0,0,1-7,7H174.35a7,7,0,0,1-7-7V159a7,7,0,0,1,7-7H212.6V164.4A7,7,0,0,0,219.6,171.4Z"/><path class="cls-5" d="M232,177.19H219.6a7,7,0,0,1-7-7V157.78l19.07,12.36Z"/><path class="cls-7" d="M225,234H174.35a9,9,0,0,1-9-9V159a9,9,0,0,1,9-9H212.6a2,2,0,0,1,2,2V164.4a5,5,0,0,0,5,5H232a2,2,0,0,1,2,2V225A9,9,0,0,1,225,234Zm-50.66-80a5,5,0,0,0-5,5v66a5,5,0,0,0,5,5H225a5,5,0,0,0,5-5V173.4H219.6a9,9,0,0,1-9-9V154Z"/><path class="cls-8" d="M232,171.4H219.6a7,7,0,0,1-7-7V152Z"/><path class="cls-7" d="M232,173.4H219.6a9,9,0,0,1-9-9V152a2,2,0,0,1,3.41-1.41L233.42,170A2,2,0,0,1,232,173.4ZM214.6,156.82v7.58a5,5,0,0,0,5,5h7.58Z"/><circle class="cls-9" cx="151.25" cy="115" r="5"/><circle class="cls-9" cx="213" cy="126" r="4"/><circle class="cls-9" cx="131.25" cy="177" r="3"/><circle class="cls-9" cx="163.25" cy="76" r="2"/><circle class="cls-9" cx="162.25" cy="30" r="1"/><circle class="cls-10" cx="154.25" cy="249" r="5"/><circle class="cls-10" cx="146.25" cy="86" r="4"/><circle class="cls-10" cx="181.25" cy="48" r="3"/><circle class="cls-10" cx="158" cy="171" r="2"/><circle class="cls-10" cx="121" cy="239.5" r="1"/><circle class="cls-11" cx="99.25" cy="142" r="5"/><circle class="cls-11" cx="77" cy="222" r="4"/><circle class="cls-11" cx="78.25" cy="5" r="3"/><circle class="cls-11" cx="116.25" cy="40" r="2"/><circle class="cls-11" cx="115.25" cy="87" r="1"/><circle class="cls-12" cx="109.25" cy="220" r="5"/><circle class="cls-12" cx="134.25" cy="25" r="4"/><circle class="cls-12" cx="130.25" cy="112" r="3"/><circle class="cls-12" cx="40" cy="135" r="2"/><circle class="cls-12" cx="167.25" cy="135" r="1"/></g></svg>